<?xml version="1.0" encoding="utf-8" standalone="no"?>
<!DOCTYPE svg PUBLIC "-//W3C//DTD SVG 1.1//EN"
  "http://www.w3.org/Graphics/SVG/1.1/DTD/svg11.dtd">
<svg xmlns:xlink="http://www.w3.org/1999/xlink" width="1080pt" height="360pt" viewBox="0 0 1080 360" xmlns="http://www.w3.org/2000/svg" version="1.1">
 <metadata>
  <rdf:RDF xmlns:dc="http://purl.org/dc/elements/1.1/" xmlns:cc="http://creativecommons.org/ns#" xmlns:rdf="http://www.w3.org/1999/02/22-rdf-syntax-ns#">
   <cc:Work>
    <dc:type rdf:resource="http://purl.org/dc/dcmitype/StillImage"/>
    <dc:date>2024-05-20T14:33:19.909449</dc:date>
    <dc:format>image/svg+xml</dc:format>
    <dc:creator>
     <cc:Agent>
      <dc:title>Matplotlib v3.7.1, https://matplotlib.org/</dc:title>
     </cc:Agent>
    </dc:creator>
   </cc:Work>
  </rdf:RDF>
 </metadata>
 <defs>
  <style type="text/css">*{stroke-linejoin: round; stroke-linecap: butt}</style>
 </defs>
 <g id="figure_1">
  <g id="patch_1">
   <path d="M 0 360 
L 1080 360 
L 1080 0 
L 0 0 
z
" style="fill: #ffffff"/>
  </g>
  <g id="axes_1">
   <g id="patch_2">
    <path d="M 53.93 300.76 
L 1015.855 300.76 
L 1015.855 17.28 
L 53.93 17.28 
z
" style="fill: #ffffff"/>
   </g>
   <g id="matplotlib.axis_1">
    <g id="xtick_1">
     <g id="line2d_1">
      <defs>
       <path id="mfbc5d33b5e" d="M 0 0 
L 0 3.5 
" style="stroke: #000000; stroke-width: 0.8"/>
      </defs>
      <g>
       <use xlink:href="#mfbc5d33b5e" x="97.653864" y="300.76" style="stroke: #000000; stroke-width: 0.8"/>
      </g>
     </g>
     <g id="text_1">
      <!-- 0 -->
      <g transform="translate(92.563864 319.9175) scale(0.16 -0.16)">
       <defs>
        <path id="DejaVuSans-30" d="M 2034 4250 
Q 1547 4250 1301 3770 
Q 1056 3291 1056 2328 
Q 1056 1369 1301 889 
Q 1547 409 2034 409 
Q 2525 409 2770 889 
Q 3016 1369 3016 2328 
Q 3016 3291 2770 3770 
Q 2525 4250 2034 4250 
z
M 2034 4750 
Q 2819 4750 3233 4129 
Q 3647 3509 3647 2328 
Q 3647 1150 3233 529 
Q 2819 -91 2034 -91 
Q 1250 -91 836 529 
Q 422 1150 422 2328 
Q 422 3509 836 4129 
Q 1250 4750 2034 4750 
z
" transform="scale(0.015625)"/>
       </defs>
       <use xlink:href="#DejaVuSans-30"/>
      </g>
     </g>
    </g>
    <g id="xtick_2">
     <g id="line2d_2">
      <g>
       <use xlink:href="#mfbc5d33b5e" x="218.314101" y="300.76" style="stroke: #000000; stroke-width: 0.8"/>
      </g>
     </g>
     <g id="text_2">
      <!-- 100 -->
      <g transform="translate(203.044101 319.9175) scale(0.16 -0.16)">
       <defs>
        <path id="DejaVuSans-31" d="M 794 531 
L 1825 531 
L 1825 4091 
L 703 3866 
L 703 4441 
L 1819 4666 
L 2450 4666 
L 2450 531 
L 3481 531 
L 3481 0 
L 794 0 
L 794 531 
z
" transform="scale(0.015625)"/>
       </defs>
       <use xlink:href="#DejaVuSans-31"/>
       <use xlink:href="#DejaVuSans-30" x="63.623047"/>
       <use xlink:href="#DejaVuSans-30" x="127.246094"/>
      </g>
     </g>
    </g>
    <g id="xtick_3">
     <g id="line2d_3">
      <g>
       <use xlink:href="#mfbc5d33b5e" x="338.974338" y="300.76" style="stroke: #000000; stroke-width: 0.8"/>
      </g>
     </g>
     <g id="text_3">
      <!-- 200 -->
      <g transform="translate(323.704338 319.9175) scale(0.16 -0.16)">
       <defs>
        <path id="DejaVuSans-32" d="M 1228 531 
L 3431 531 
L 3431 0 
L 469 0 
L 469 531 
Q 828 903 1448 1529 
Q 2069 2156 2228 2338 
Q 2531 2678 2651 2914 
Q 2772 3150 2772 3378 
Q 2772 3750 2511 3984 
Q 2250 4219 1831 4219 
Q 1534 4219 1204 4116 
Q 875 4013 500 3803 
L 500 4441 
Q 881 4594 1212 4672 
Q 1544 4750 1819 4750 
Q 2544 4750 2975 4387 
Q 3406 4025 3406 3419 
Q 3406 3131 3298 2873 
Q 3191 2616 2906 2266 
Q 2828 2175 2409 1742 
Q 1991 1309 1228 531 
z
" transform="scale(0.015625)"/>
       </defs>
       <use xlink:href="#DejaVuSans-32"/>
       <use xlink:href="#DejaVuSans-30" x="63.623047"/>
       <use xlink:href="#DejaVuSans-30" x="127.246094"/>
      </g>
     </g>
    </g>
    <g id="xtick_4">
     <g id="line2d_4">
      <g>
       <use xlink:href="#mfbc5d33b5e" x="459.634575" y="300.76" style="stroke: #000000; stroke-width: 0.8"/>
      </g>
     </g>
     <g id="text_4">
      <!-- 300 -->
      <g transform="translate(444.364575 319.9175) scale(0.16 -0.16)">
       <defs>
        <path id="DejaVuSans-33" d="M 2597 2516 
Q 3050 2419 3304 2112 
Q 3559 1806 3559 1356 
Q 3559 666 3084 287 
Q 2609 -91 1734 -91 
Q 1441 -91 1130 -33 
Q 819 25 488 141 
L 488 750 
Q 750 597 1062 519 
Q 1375 441 1716 441 
Q 2309 441 2620 675 
Q 2931 909 2931 1356 
Q 2931 1769 2642 2001 
Q 2353 2234 1838 2234 
L 1294 2234 
L 1294 2753 
L 1863 2753 
Q 2328 2753 2575 2939 
Q 2822 3125 2822 3475 
Q 2822 3834 2567 4026 
Q 2313 4219 1838 4219 
Q 1578 4219 1281 4162 
Q 984 4106 628 3988 
L 628 4550 
Q 988 4650 1302 4700 
Q 1616 4750 1894 4750 
Q 2613 4750 3031 4423 
Q 3450 4097 3450 3541 
Q 3450 3153 3228 2886 
Q 3006 2619 2597 2516 
z
" transform="scale(0.015625)"/>
       </defs>
       <use xlink:href="#DejaVuSans-33"/>
       <use xlink:href="#DejaVuSans-30" x="63.623047"/>
       <use xlink:href="#DejaVuSans-30" x="127.246094"/>
      </g>
     </g>
    </g>
    <g id="xtick_5">
     <g id="line2d_5">
      <g>
       <use xlink:href="#mfbc5d33b5e" x="580.294812" y="300.76" style="stroke: #000000; stroke-width: 0.8"/>
      </g>
     </g>
     <g id="text_5">
      <!-- 400 -->
      <g transform="translate(565.024812 319.9175) scale(0.16 -0.16)">
       <defs>
        <path id="DejaVuSans-34" d="M 2419 4116 
L 825 1625 
L 2419 1625 
L 2419 4116 
z
M 2253 4666 
L 3047 4666 
L 3047 1625 
L 3713 1625 
L 3713 1100 
L 3047 1100 
L 3047 0 
L 2419 0 
L 2419 1100 
L 313 1100 
L 313 1709 
L 2253 4666 
z
" transform="scale(0.015625)"/>
       </defs>
       <use xlink:href="#DejaVuSans-34"/>
       <use xlink:href="#DejaVuSans-30" x="63.623047"/>
       <use xlink:href="#DejaVuSans-30" x="127.246094"/>
      </g>
     </g>
    </g>
    <g id="xtick_6">
     <g id="line2d_6">
      <g>
       <use xlink:href="#mfbc5d33b5e" x="700.955049" y="300.76" style="stroke: #000000; stroke-width: 0.8"/>
      </g>
     </g>
     <g id="text_6">
      <!-- 500 -->
      <g transform="translate(685.685049 319.9175) scale(0.16 -0.16)">
       <defs>
        <path id="DejaVuSans-35" d="M 691 4666 
L 3169 4666 
L 3169 4134 
L 1269 4134 
L 1269 2991 
Q 1406 3038 1543 3061 
Q 1681 3084 1819 3084 
Q 2600 3084 3056 2656 
Q 3513 2228 3513 1497 
Q 3513 744 3044 326 
Q 2575 -91 1722 -91 
Q 1428 -91 1123 -41 
Q 819 9 494 109 
L 494 744 
Q 775 591 1075 516 
Q 1375 441 1709 441 
Q 2250 441 2565 725 
Q 2881 1009 2881 1497 
Q 2881 1984 2565 2268 
Q 2250 2553 1709 2553 
Q 1456 2553 1204 2497 
Q 953 2441 691 2322 
L 691 4666 
z
" transform="scale(0.015625)"/>
       </defs>
       <use xlink:href="#DejaVuSans-35"/>
       <use xlink:href="#DejaVuSans-30" x="63.623047"/>
       <use xlink:href="#DejaVuSans-30" x="127.246094"/>
      </g>
     </g>
    </g>
    <g id="xtick_7">
     <g id="line2d_7">
      <g>
       <use xlink:href="#mfbc5d33b5e" x="821.615286" y="300.76" style="stroke: #000000; stroke-width: 0.8"/>
      </g>
     </g>
     <g id="text_7">
      <!-- 600 -->
      <g transform="translate(806.345286 319.9175) scale(0.16 -0.16)">
       <defs>
        <path id="DejaVuSans-36" d="M 2113 2584 
Q 1688 2584 1439 2293 
Q 1191 2003 1191 1497 
Q 1191 994 1439 701 
Q 1688 409 2113 409 
Q 2538 409 2786 701 
Q 3034 994 3034 1497 
Q 3034 2003 2786 2293 
Q 2538 2584 2113 2584 
z
M 3366 4563 
L 3366 3988 
Q 3128 4100 2886 4159 
Q 2644 4219 2406 4219 
Q 1781 4219 1451 3797 
Q 1122 3375 1075 2522 
Q 1259 2794 1537 2939 
Q 1816 3084 2150 3084 
Q 2853 3084 3261 2657 
Q 3669 2231 3669 1497 
Q 3669 778 3244 343 
Q 2819 -91 2113 -91 
Q 1303 -91 875 529 
Q 447 1150 447 2328 
Q 447 3434 972 4092 
Q 1497 4750 2381 4750 
Q 2619 4750 2861 4703 
Q 3103 4656 3366 4563 
z
" transform="scale(0.015625)"/>
       </defs>
       <use xlink:href="#DejaVuSans-36"/>
       <use xlink:href="#DejaVuSans-30" x="63.623047"/>
       <use xlink:href="#DejaVuSans-30" x="127.246094"/>
      </g>
     </g>
    </g>
    <g id="xtick_8">
     <g id="line2d_8">
      <g>
       <use xlink:href="#mfbc5d33b5e" x="942.275523" y="300.76" style="stroke: #000000; stroke-width: 0.8"/>
      </g>
     </g>
     <g id="text_8">
      <!-- 700 -->
      <g transform="translate(927.005523 319.9175) scale(0.16 -0.16)">
       <defs>
        <path id="DejaVuSans-37" d="M 525 4666 
L 3525 4666 
L 3525 4397 
L 1831 0 
L 1172 0 
L 2766 4134 
L 525 4134 
L 525 4666 
z
" transform="scale(0.015625)"/>
       </defs>
       <use xlink:href="#DejaVuSans-37"/>
       <use xlink:href="#DejaVuSans-30" x="63.623047"/>
       <use xlink:href="#DejaVuSans-30" x="127.246094"/>
      </g>
     </g>
    </g>
    <g id="text_9">
     <!-- Time [s] -->
     <g transform="translate(502.36625 339.4025) scale(0.16 -0.16)">
      <defs>
       <path id="DejaVuSans-54" d="M -19 4666 
L 3928 4666 
L 3928 4134 
L 2272 4134 
L 2272 0 
L 1638 0 
L 1638 4134 
L -19 4134 
L -19 4666 
z
" transform="scale(0.015625)"/>
       <path id="DejaVuSans-69" d="M 603 3500 
L 1178 3500 
L 1178 0 
L 603 0 
L 603 3500 
z
M 603 4863 
L 1178 4863 
L 1178 4134 
L 603 4134 
L 603 4863 
z
" transform="scale(0.015625)"/>
       <path id="DejaVuSans-6d" d="M 3328 2828 
Q 3544 3216 3844 3400 
Q 4144 3584 4550 3584 
Q 5097 3584 5394 3201 
Q 5691 2819 5691 2113 
L 5691 0 
L 5113 0 
L 5113 2094 
Q 5113 2597 4934 2840 
Q 4756 3084 4391 3084 
Q 3944 3084 3684 2787 
Q 3425 2491 3425 1978 
L 3425 0 
L 2847 0 
L 2847 2094 
Q 2847 2600 2669 2842 
Q 2491 3084 2119 3084 
Q 1678 3084 1418 2786 
Q 1159 2488 1159 1978 
L 1159 0 
L 581 0 
L 581 3500 
L 1159 3500 
L 1159 2956 
Q 1356 3278 1631 3431 
Q 1906 3584 2284 3584 
Q 2666 3584 2933 3390 
Q 3200 3197 3328 2828 
z
" transform="scale(0.015625)"/>
       <path id="DejaVuSans-65" d="M 3597 1894 
L 3597 1613 
L 953 1613 
Q 991 1019 1311 708 
Q 1631 397 2203 397 
Q 2534 397 2845 478 
Q 3156 559 3463 722 
L 3463 178 
Q 3153 47 2828 -22 
Q 2503 -91 2169 -91 
Q 1331 -91 842 396 
Q 353 884 353 1716 
Q 353 2575 817 3079 
Q 1281 3584 2069 3584 
Q 2775 3584 3186 3129 
Q 3597 2675 3597 1894 
z
M 3022 2063 
Q 3016 2534 2758 2815 
Q 2500 3097 2075 3097 
Q 1594 3097 1305 2825 
Q 1016 2553 972 2059 
L 3022 2063 
z
" transform="scale(0.015625)"/>
       <path id="DejaVuSans-20" transform="scale(0.015625)"/>
       <path id="DejaVuSans-5b" d="M 550 4863 
L 1875 4863 
L 1875 4416 
L 1125 4416 
L 1125 -397 
L 1875 -397 
L 1875 -844 
L 550 -844 
L 550 4863 
z
" transform="scale(0.015625)"/>
       <path id="DejaVuSans-73" d="M 2834 3397 
L 2834 2853 
Q 2591 2978 2328 3040 
Q 2066 3103 1784 3103 
Q 1356 3103 1142 2972 
Q 928 2841 928 2578 
Q 928 2378 1081 2264 
Q 1234 2150 1697 2047 
L 1894 2003 
Q 2506 1872 2764 1633 
Q 3022 1394 3022 966 
Q 3022 478 2636 193 
Q 2250 -91 1575 -91 
Q 1294 -91 989 -36 
Q 684 19 347 128 
L 347 722 
Q 666 556 975 473 
Q 1284 391 1588 391 
Q 1994 391 2212 530 
Q 2431 669 2431 922 
Q 2431 1156 2273 1281 
Q 2116 1406 1581 1522 
L 1381 1569 
Q 847 1681 609 1914 
Q 372 2147 372 2553 
Q 372 3047 722 3315 
Q 1072 3584 1716 3584 
Q 2034 3584 2315 3537 
Q 2597 3491 2834 3397 
z
" transform="scale(0.015625)"/>
       <path id="DejaVuSans-5d" d="M 1947 4863 
L 1947 -844 
L 622 -844 
L 622 -397 
L 1369 -397 
L 1369 4416 
L 622 4416 
L 622 4863 
L 1947 4863 
z
" transform="scale(0.015625)"/>
      </defs>
      <use xlink:href="#DejaVuSans-54"/>
      <use xlink:href="#DejaVuSans-69" x="57.958984"/>
      <use xlink:href="#DejaVuSans-6d" x="85.742188"/>
      <use xlink:href="#DejaVuSans-65" x="183.154297"/>
      <use xlink:href="#DejaVuSans-20" x="244.677734"/>
      <use xlink:href="#DejaVuSans-5b" x="276.464844"/>
      <use xlink:href="#DejaVuSans-73" x="315.478516"/>
      <use xlink:href="#DejaVuSans-5d" x="367.578125"/>
     </g>
    </g>
   </g>
   <g id="matplotlib.axis_2">
    <g id="ytick_1">
     <g id="line2d_9">
      <defs>
       <path id="m475fa9cdaa" d="M 0 0 
L -3.5 0 
" style="stroke: #000000; stroke-width: 0.8"/>
      </defs>
      <g>
       <use xlink:href="#m475fa9cdaa" x="53.93" y="288.380961" style="stroke: #000000; stroke-width: 0.8"/>
      </g>
     </g>
     <g id="text_10">
      <!-- 0 -->
      <g style="fill: #a00000" transform="translate(36.75 294.459711) scale(0.16 -0.16)">
       <use xlink:href="#DejaVuSans-30"/>
      </g>
     </g>
    </g>
    <g id="ytick_2">
     <g id="line2d_10">
      <g>
       <use xlink:href="#m475fa9cdaa" x="53.93" y="40.800175" style="stroke: #000000; stroke-width: 0.8"/>
      </g>
     </g>
     <g id="text_11">
      <!-- 1 -->
      <g style="fill: #a00000" transform="translate(36.75 46.878925) scale(0.16 -0.16)">
       <use xlink:href="#DejaVuSans-31"/>
      </g>
     </g>
    </g>
    <g id="text_12">
     <!-- State commands -->
     <g style="fill: #a00000" transform="translate(29.4225 226.83625) rotate(-90) scale(0.16 -0.16)">
      <defs>
       <path id="DejaVuSans-53" d="M 3425 4513 
L 3425 3897 
Q 3066 4069 2747 4153 
Q 2428 4238 2131 4238 
Q 1616 4238 1336 4038 
Q 1056 3838 1056 3469 
Q 1056 3159 1242 3001 
Q 1428 2844 1947 2747 
L 2328 2669 
Q 3034 2534 3370 2195 
Q 3706 1856 3706 1288 
Q 3706 609 3251 259 
Q 2797 -91 1919 -91 
Q 1588 -91 1214 -16 
Q 841 59 441 206 
L 441 856 
Q 825 641 1194 531 
Q 1563 422 1919 422 
Q 2459 422 2753 634 
Q 3047 847 3047 1241 
Q 3047 1584 2836 1778 
Q 2625 1972 2144 2069 
L 1759 2144 
Q 1053 2284 737 2584 
Q 422 2884 422 3419 
Q 422 4038 858 4394 
Q 1294 4750 2059 4750 
Q 2388 4750 2728 4690 
Q 3069 4631 3425 4513 
z
" transform="scale(0.015625)"/>
       <path id="DejaVuSans-74" d="M 1172 4494 
L 1172 3500 
L 2356 3500 
L 2356 3053 
L 1172 3053 
L 1172 1153 
Q 1172 725 1289 603 
Q 1406 481 1766 481 
L 2356 481 
L 2356 0 
L 1766 0 
Q 1100 0 847 248 
Q 594 497 594 1153 
L 594 3053 
L 172 3053 
L 172 3500 
L 594 3500 
L 594 4494 
L 1172 4494 
z
" transform="scale(0.015625)"/>
       <path id="DejaVuSans-61" d="M 2194 1759 
Q 1497 1759 1228 1600 
Q 959 1441 959 1056 
Q 959 750 1161 570 
Q 1363 391 1709 391 
Q 2188 391 2477 730 
Q 2766 1069 2766 1631 
L 2766 1759 
L 2194 1759 
z
M 3341 1997 
L 3341 0 
L 2766 0 
L 2766 531 
Q 2569 213 2275 61 
Q 1981 -91 1556 -91 
Q 1019 -91 701 211 
Q 384 513 384 1019 
Q 384 1609 779 1909 
Q 1175 2209 1959 2209 
L 2766 2209 
L 2766 2266 
Q 2766 2663 2505 2880 
Q 2244 3097 1772 3097 
Q 1472 3097 1187 3025 
Q 903 2953 641 2809 
L 641 3341 
Q 956 3463 1253 3523 
Q 1550 3584 1831 3584 
Q 2591 3584 2966 3190 
Q 3341 2797 3341 1997 
z
" transform="scale(0.015625)"/>
       <path id="DejaVuSans-63" d="M 3122 3366 
L 3122 2828 
Q 2878 2963 2633 3030 
Q 2388 3097 2138 3097 
Q 1578 3097 1268 2742 
Q 959 2388 959 1747 
Q 959 1106 1268 751 
Q 1578 397 2138 397 
Q 2388 397 2633 464 
Q 2878 531 3122 666 
L 3122 134 
Q 2881 22 2623 -34 
Q 2366 -91 2075 -91 
Q 1284 -91 818 406 
Q 353 903 353 1747 
Q 353 2603 823 3093 
Q 1294 3584 2113 3584 
Q 2378 3584 2631 3529 
Q 2884 3475 3122 3366 
z
" transform="scale(0.015625)"/>
       <path id="DejaVuSans-6f" d="M 1959 3097 
Q 1497 3097 1228 2736 
Q 959 2375 959 1747 
Q 959 1119 1226 758 
Q 1494 397 1959 397 
Q 2419 397 2687 759 
Q 2956 1122 2956 1747 
Q 2956 2369 2687 2733 
Q 2419 3097 1959 3097 
z
M 1959 3584 
Q 2709 3584 3137 3096 
Q 3566 2609 3566 1747 
Q 3566 888 3137 398 
Q 2709 -91 1959 -91 
Q 1206 -91 779 398 
Q 353 888 353 1747 
Q 353 2609 779 3096 
Q 1206 3584 1959 3584 
z
" transform="scale(0.015625)"/>
       <path id="DejaVuSans-6e" d="M 3513 2113 
L 3513 0 
L 2938 0 
L 2938 2094 
Q 2938 2591 2744 2837 
Q 2550 3084 2163 3084 
Q 1697 3084 1428 2787 
Q 1159 2491 1159 1978 
L 1159 0 
L 581 0 
L 581 3500 
L 1159 3500 
L 1159 2956 
Q 1366 3272 1645 3428 
Q 1925 3584 2291 3584 
Q 2894 3584 3203 3211 
Q 3513 2838 3513 2113 
z
" transform="scale(0.015625)"/>
       <path id="DejaVuSans-64" d="M 2906 2969 
L 2906 4863 
L 3481 4863 
L 3481 0 
L 2906 0 
L 2906 525 
Q 2725 213 2448 61 
Q 2172 -91 1784 -91 
Q 1150 -91 751 415 
Q 353 922 353 1747 
Q 353 2572 751 3078 
Q 1150 3584 1784 3584 
Q 2172 3584 2448 3432 
Q 2725 3281 2906 2969 
z
M 947 1747 
Q 947 1113 1208 752 
Q 1469 391 1925 391 
Q 2381 391 2643 752 
Q 2906 1113 2906 1747 
Q 2906 2381 2643 2742 
Q 2381 3103 1925 3103 
Q 1469 3103 1208 2742 
Q 947 2381 947 1747 
z
" transform="scale(0.015625)"/>
      </defs>
      <use xlink:href="#DejaVuSans-53"/>
      <use xlink:href="#DejaVuSans-74" x="63.476562"/>
      <use xlink:href="#DejaVuSans-61" x="102.685547"/>
      <use xlink:href="#DejaVuSans-74" x="163.964844"/>
      <use xlink:href="#DejaVuSans-65" x="203.173828"/>
      <use xlink:href="#DejaVuSans-20" x="264.697266"/>
      <use xlink:href="#DejaVuSans-63" x="296.484375"/>
      <use xlink:href="#DejaVuSans-6f" x="351.464844"/>
      <use xlink:href="#DejaVuSans-6d" x="412.646484"/>
      <use xlink:href="#DejaVuSans-6d" x="510.058594"/>
      <use xlink:href="#DejaVuSans-61" x="607.470703"/>
      <use xlink:href="#DejaVuSans-6e" x="668.75"/>
      <use xlink:href="#DejaVuSans-64" x="732.128906"/>
      <use xlink:href="#DejaVuSans-73" x="795.605469"/>
     </g>
    </g>
   </g>
   <g id="line2d_11">
    <path d="M 97.653864 40.800175 
L 246.521208 40.800175 
L 246.615324 288.380961 
L 383.555437 288.380961 
L 383.673608 40.800175 
L 494.209271 40.800175 
L 494.351734 288.380961 
L 681.70795 288.380961 
L 681.833387 40.800175 
L 790.507238 40.800175 
L 790.61586 288.380961 
L 972.131136 288.380961 
L 972.131136 288.380961 
" clip-path="url(#p199d28e264)" style="fill: none; stroke: #a00000; stroke-width: 3; stroke-linecap: square"/>
   </g>
   <g id="patch_3">
    <path d="M 53.93 300.76 
L 53.93 17.28 
" style="fill: none; stroke: #000000; stroke-width: 0.8; stroke-linejoin: miter; stroke-linecap: square"/>
   </g>
   <g id="patch_4">
    <path d="M 1015.855 300.76 
L 1015.855 17.28 
" style="fill: none; stroke: #000000; stroke-width: 0.8; stroke-linejoin: miter; stroke-linecap: square"/>
   </g>
   <g id="patch_5">
    <path d="M 53.93 300.76 
L 1015.855 300.76 
" style="fill: none; stroke: #000000; stroke-width: 0.8; stroke-linejoin: miter; stroke-linecap: square"/>
   </g>
   <g id="patch_6">
    <path d="M 53.93 17.28 
L 1015.855 17.28 
" style="fill: none; stroke: #000000; stroke-width: 0.8; stroke-linejoin: miter; stroke-linecap: square"/>
   </g>
  </g>
  <g id="axes_2">
   <g id="matplotlib.axis_3">
    <g id="ytick_3">
     <g id="line2d_12">
      <defs>
       <path id="mc810952970" d="M 0 0 
L 3.5 0 
" style="stroke: #000000; stroke-width: 0.8"/>
      </defs>
      <g>
       <use xlink:href="#mc810952970" x="1015.855" y="296.496619" style="stroke: #000000; stroke-width: 0.8"/>
      </g>
     </g>
     <g id="text_13">
      <!-- 25 -->
      <g style="fill: #007091" transform="translate(1022.855 302.575369) scale(0.16 -0.16)">
       <use xlink:href="#DejaVuSans-32"/>
       <use xlink:href="#DejaVuSans-35" x="63.623047"/>
      </g>
     </g>
    </g>
    <g id="ytick_4">
     <g id="line2d_13">
      <g>
       <use xlink:href="#mc810952970" x="1015.855" y="251.763948" style="stroke: #000000; stroke-width: 0.8"/>
      </g>
     </g>
     <g id="text_14">
      <!-- 30 -->
      <g style="fill: #007091" transform="translate(1022.855 257.842698) scale(0.16 -0.16)">
       <use xlink:href="#DejaVuSans-33"/>
       <use xlink:href="#DejaVuSans-30" x="63.623047"/>
      </g>
     </g>
    </g>
    <g id="ytick_5">
     <g id="line2d_14">
      <g>
       <use xlink:href="#mc810952970" x="1015.855" y="207.031277" style="stroke: #000000; stroke-width: 0.8"/>
      </g>
     </g>
     <g id="text_15">
      <!-- 35 -->
      <g style="fill: #007091" transform="translate(1022.855 213.110027) scale(0.16 -0.16)">
       <use xlink:href="#DejaVuSans-33"/>
       <use xlink:href="#DejaVuSans-35" x="63.623047"/>
      </g>
     </g>
    </g>
    <g id="ytick_6">
     <g id="line2d_15">
      <g>
       <use xlink:href="#mc810952970" x="1015.855" y="162.298607" style="stroke: #000000; stroke-width: 0.8"/>
      </g>
     </g>
     <g id="text_16">
      <!-- 40 -->
      <g style="fill: #007091" transform="translate(1022.855 168.377357) scale(0.16 -0.16)">
       <use xlink:href="#DejaVuSans-34"/>
       <use xlink:href="#DejaVuSans-30" x="63.623047"/>
      </g>
     </g>
    </g>
    <g id="ytick_7">
     <g id="line2d_16">
      <g>
       <use xlink:href="#mc810952970" x="1015.855" y="117.565936" style="stroke: #000000; stroke-width: 0.8"/>
      </g>
     </g>
     <g id="text_17">
      <!-- 45 -->
      <g style="fill: #007091" transform="translate(1022.855 123.644686) scale(0.16 -0.16)">
       <use xlink:href="#DejaVuSans-34"/>
       <use xlink:href="#DejaVuSans-35" x="63.623047"/>
      </g>
     </g>
    </g>
    <g id="ytick_8">
     <g id="line2d_17">
      <g>
       <use xlink:href="#mc810952970" x="1015.855" y="72.833265" style="stroke: #000000; stroke-width: 0.8"/>
      </g>
     </g>
     <g id="text_18">
      <!-- 50 -->
      <g style="fill: #007091" transform="translate(1022.855 78.912015) scale(0.16 -0.16)">
       <use xlink:href="#DejaVuSans-35"/>
       <use xlink:href="#DejaVuSans-30" x="63.623047"/>
      </g>
     </g>
    </g>
    <g id="ytick_9">
     <g id="line2d_18">
      <g>
       <use xlink:href="#mc810952970" x="1015.855" y="28.100594" style="stroke: #000000; stroke-width: 0.8"/>
      </g>
     </g>
     <g id="text_19">
      <!-- 55 -->
      <g style="fill: #007091" transform="translate(1022.855 34.179344) scale(0.16 -0.16)">
       <use xlink:href="#DejaVuSans-35"/>
       <use xlink:href="#DejaVuSans-35" x="63.623047"/>
      </g>
     </g>
    </g>
    <g id="text_20">
     <!-- Temperature [C] -->
     <g style="fill: #007091" transform="translate(1059.3725 224.0625) rotate(-90) scale(0.16 -0.16)">
      <defs>
       <path id="DejaVuSans-70" d="M 1159 525 
L 1159 -1331 
L 581 -1331 
L 581 3500 
L 1159 3500 
L 1159 2969 
Q 1341 3281 1617 3432 
Q 1894 3584 2278 3584 
Q 2916 3584 3314 3078 
Q 3713 2572 3713 1747 
Q 3713 922 3314 415 
Q 2916 -91 2278 -91 
Q 1894 -91 1617 61 
Q 1341 213 1159 525 
z
M 3116 1747 
Q 3116 2381 2855 2742 
Q 2594 3103 2138 3103 
Q 1681 3103 1420 2742 
Q 1159 2381 1159 1747 
Q 1159 1113 1420 752 
Q 1681 391 2138 391 
Q 2594 391 2855 752 
Q 3116 1113 3116 1747 
z
" transform="scale(0.015625)"/>
       <path id="DejaVuSans-72" d="M 2631 2963 
Q 2534 3019 2420 3045 
Q 2306 3072 2169 3072 
Q 1681 3072 1420 2755 
Q 1159 2438 1159 1844 
L 1159 0 
L 581 0 
L 581 3500 
L 1159 3500 
L 1159 2956 
Q 1341 3275 1631 3429 
Q 1922 3584 2338 3584 
Q 2397 3584 2469 3576 
Q 2541 3569 2628 3553 
L 2631 2963 
z
" transform="scale(0.015625)"/>
       <path id="DejaVuSans-75" d="M 544 1381 
L 544 3500 
L 1119 3500 
L 1119 1403 
Q 1119 906 1312 657 
Q 1506 409 1894 409 
Q 2359 409 2629 706 
Q 2900 1003 2900 1516 
L 2900 3500 
L 3475 3500 
L 3475 0 
L 2900 0 
L 2900 538 
Q 2691 219 2414 64 
Q 2138 -91 1772 -91 
Q 1169 -91 856 284 
Q 544 659 544 1381 
z
M 1991 3584 
L 1991 3584 
z
" transform="scale(0.015625)"/>
       <path id="DejaVuSans-43" d="M 4122 4306 
L 4122 3641 
Q 3803 3938 3442 4084 
Q 3081 4231 2675 4231 
Q 1875 4231 1450 3742 
Q 1025 3253 1025 2328 
Q 1025 1406 1450 917 
Q 1875 428 2675 428 
Q 3081 428 3442 575 
Q 3803 722 4122 1019 
L 4122 359 
Q 3791 134 3420 21 
Q 3050 -91 2638 -91 
Q 1578 -91 968 557 
Q 359 1206 359 2328 
Q 359 3453 968 4101 
Q 1578 4750 2638 4750 
Q 3056 4750 3426 4639 
Q 3797 4528 4122 4306 
z
" transform="scale(0.015625)"/>
      </defs>
      <use xlink:href="#DejaVuSans-54"/>
      <use xlink:href="#DejaVuSans-65" x="44.083984"/>
      <use xlink:href="#DejaVuSans-6d" x="105.607422"/>
      <use xlink:href="#DejaVuSans-70" x="203.019531"/>
      <use xlink:href="#DejaVuSans-65" x="266.496094"/>
      <use xlink:href="#DejaVuSans-72" x="328.019531"/>
      <use xlink:href="#DejaVuSans-61" x="369.132812"/>
      <use xlink:href="#DejaVuSans-74" x="430.412109"/>
      <use xlink:href="#DejaVuSans-75" x="469.621094"/>
      <use xlink:href="#DejaVuSans-72" x="533"/>
      <use xlink:href="#DejaVuSans-65" x="571.863281"/>
      <use xlink:href="#DejaVuSans-20" x="633.386719"/>
      <use xlink:href="#DejaVuSans-5b" x="665.173828"/>
      <use xlink:href="#DejaVuSans-43" x="704.1875"/>
      <use xlink:href="#DejaVuSans-5d" x="774.011719"/>
     </g>
    </g>
   </g>
   <g id="line2d_19">
    <path d="M 97.653864 287.874545 
L 97.910957 287.058323 
L 98.375637 284.333805 
L 100.49304 272.825879 
L 100.86706 270.4127 
L 101.016751 269.75841 
L 101.293455 268.067515 
L 103.07627 257.731286 
L 103.256046 256.586428 
L 103.618135 254.575247 
L 103.996946 252.281654 
L 104.467614 249.486757 
L 104.56291 249.153349 
L 105.041456 246.550504 
L 105.516038 243.913961 
L 105.771746 242.591066 
L 106.260452 239.302619 
L 106.662396 236.732279 
L 106.904795 235.397755 
L 107.135319 233.845531 
L 107.473095 231.40939 
L 107.708569 229.821977 
L 108.100478 227.137718 
L 108.869061 221.543152 
L 109.172003 219.620542 
L 109.292575 218.839211 
L 109.665333 216.113799 
L 109.76692 215.719555 
L 110.45453 210.376685 
L 110.572729 209.793669 
L 110.753724 208.199695 
L 110.952859 206.582758 
L 112.163232 197.854519 
L 112.567242 194.284554 
L 113.399825 188.234907 
L 113.643372 186.373133 
L 113.9644 183.692752 
L 114.372158 180.804214 
L 114.521789 179.999324 
L 114.906675 176.984044 
L 116.633261 165.740935 
L 116.920443 164.311279 
L 118.780965 153.201174 
L 118.919781 152.738937 
L 119.261239 150.743263 
L 119.728104 148.235848 
L 119.86325 147.807309 
L 120.017648 147.255606 
L 120.098487 146.694956 
L 120.262628 146.417316 
L 120.599403 144.695704 
L 121.126545 142.168308 
L 121.466762 140.448784 
L 121.671897 139.481068 
L 121.94212 138.303107 
L 124.348215 128.675444 
L 124.758234 127.181671 
L 125.181843 125.633324 
L 125.318132 125.289479 
L 129.124918 114.061877 
L 129.363723 113.528961 
L 129.802973 112.432415 
L 130.035839 111.771266 
L 131.813063 107.139943 
L 132.072542 106.386943 
L 132.231693 106.078884 
L 132.522495 105.222104 
L 132.88221 104.192657 
L 133.094449 103.565505 
L 133.326043 103.021854 
L 133.945069 101.076579 
L 134.076569 100.840092 
L 134.465083 99.537775 
L 134.713602 98.69531 
L 137.871219 88.932255 
L 137.996764 88.684138 
L 138.364845 87.429536 
L 140.191509 82.599898 
L 140.460496 81.789342 
L 141.64418 78.477932 
L 141.794875 78.190152 
L 143.50952 74.102182 
L 143.662719 73.844224 
L 143.859371 73.326816 
L 144.000671 73.074822 
L 144.509738 71.941892 
L 144.746237 71.380646 
L 148.835335 63.331748 
L 149.029512 63.022496 
L 149.212975 62.725471 
L 149.423001 62.429639 
L 149.799301 61.796224 
L 150.14445 61.205157 
L 150.716303 60.19718 
L 154.333616 55.762383 
L 154.551935 55.56884 
L 154.911684 55.103024 
L 162.254747 47.383656 
L 162.57692 47.151642 
L 165.853826 44.301873 
L 166.107285 44.128907 
L 166.311149 43.977114 
L 166.544333 43.797289 
L 168.642245 42.152617 
L 168.84019 41.976072 
L 169.303363 41.676065 
L 173.590333 38.418632 
L 173.896842 38.084032 
L 176.244769 36.308443 
L 176.566981 36.085376 
L 176.785343 35.896008 
L 177.15094 35.586458 
L 178.805178 34.519733 
L 178.99836 34.383149 
L 180.891251 33.36056 
L 181.309953 33.192365 
L 181.723856 33.003593 
L 182.752783 32.673765 
L 183.766486 32.438471 
L 185.156438 32.23777 
L 186.427051 32.385388 
L 187.883403 32.698815 
L 188.630143 32.851502 
L 194.703732 33.987712 
L 201.156819 34.334838 
L 202.109867 34.55373 
L 203.227178 34.826599 
L 203.711176 34.949166 
L 204.670227 35.247682 
L 204.836839 35.323131 
L 205.308608 35.525323 
L 205.75616 35.70157 
L 206.355864 35.995314 
L 206.67192 36.112216 
L 208.557813 36.916211 
L 208.998203 37.17238 
L 210.497988 37.897944 
L 211.400444 38.471417 
L 211.685447 38.686134 
L 212.659137 39.400664 
L 212.874848 39.510109 
L 213.239309 39.7293 
L 213.771328 40.020957 
L 215.225225 40.670773 
L 217.075026 40.815409 
L 218.018558 40.585483 
L 219.222688 40.007835 
L 219.708817 39.720651 
L 221.135918 38.822419 
L 221.556094 38.502133 
L 222.199269 38.179163 
L 224.107938 37.353697 
L 225.074435 37.278546 
L 225.758607 37.420497 
L 227.164165 38.049737 
L 229.185254 39.590628 
L 229.576221 39.927614 
L 230.01169 40.232989 
L 230.367628 40.521664 
L 230.67656 40.748906 
L 231.112051 40.997918 
L 232.917228 41.617316 
L 233.631384 41.494451 
L 235.563119 40.711629 
L 236.66594 39.906441 
L 236.929777 39.708126 
L 237.584201 39.198174 
L 238.022067 38.823016 
L 238.583167 38.422211 
L 238.86909 38.228071 
L 240.035815 37.590183 
L 240.741655 37.496543 
L 241.85771 37.589885 
L 242.997994 38.132641 
L 244.173133 39.173422 
L 244.506107 39.533072 
L 245.308558 40.448601 
L 245.577686 40.784991 
L 245.806851 41.044142 
L 245.982958 41.236194 
L 246.203793 41.540674 
L 246.691263 42.275185 
L 247.045906 42.766051 
L 247.421182 43.336244 
L 247.598547 43.58794 
L 248.20827 44.736078 
L 249.109189 46.123387 
L 249.348066 46.602027 
L 249.777631 47.49847 
L 250.06842 48.083275 
L 250.395481 48.7149 
L 250.843109 49.580626 
L 251.345037 50.633932 
L 251.597433 51.215755 
L 252.72646 53.531714 
L 252.886937 53.761044 
L 253.128231 54.317518 
L 253.326109 54.711166 
L 253.863137 55.86169 
L 254.067042 56.320349 
L 254.579801 57.314309 
L 254.752253 57.684397 
L 254.915305 57.976949 
L 255.265088 58.703706 
L 255.412335 58.982241 
L 255.841811 59.936538 
L 256.168435 60.695204 
L 256.554889 61.53916 
L 257.047509 62.491966 
L 257.23177 62.774677 
L 257.572078 63.604915 
L 260.776704 70.23042 
L 260.955275 70.561442 
L 261.203895 71.070798 
L 261.503208 71.754313 
L 263.812439 76.173006 
L 263.990966 76.448858 
L 264.202132 76.863679 
L 264.382721 77.168756 
L 264.646126 77.747298 
L 265.127619 78.570678 
L 265.365185 78.926451 
L 266.046978 80.130357 
L 266.442745 80.895882 
L 266.609236 81.151753 
L 267.302651 82.289155 
L 267.636052 82.950304 
L 268.047385 83.765333 
L 268.19745 84.003609 
L 268.825705 85.109699 
L 270.438976 87.806781 
L 270.641581 88.051916 
L 270.827415 88.375184 
L 271.137436 88.916151 
L 271.428271 89.475012 
L 273.548164 93.087324 
L 273.79787 93.497373 
L 274.465135 94.493421 
L 274.780308 94.93359 
L 275.353122 95.610545 
L 275.595875 95.970494 
L 276.557286 97.282354 
L 277.001358 97.934556 
L 277.295905 98.150764 
L 277.535891 98.470155 
L 278.433607 99.765912 
L 280.865091 103.118178 
L 281.033719 103.310528 
L 281.606786 104.040864 
L 283.037799 105.851046 
L 283.597599 106.617764 
L 283.949925 107.078809 
L 284.290186 107.566991 
L 285.019234 108.521288 
L 285.209617 108.808472 
L 285.665722 109.372998 
L 285.926317 109.708791 
L 286.136228 109.924701 
L 286.546198 110.56915 
L 286.748047 110.789831 
L 288.01602 112.433011 
L 288.539692 113.191081 
L 290.000819 114.997386 
L 290.19997 115.174229 
L 291.785332 117.203601 
L 292.171585 117.471103 
L 292.711986 118.187422 
L 294.00659 119.549681 
L 294.27345 119.904262 
L 294.95262 120.683207 
L 295.325401 121.14455 
L 295.791258 121.601121 
L 297.212615 123.102349 
L 297.511736 123.456334 
L 299.648661 125.744857 
L 299.9224 125.99715 
L 300.213161 126.320716 
L 301.433073 127.541023 
L 301.704483 127.754845 
L 301.979602 128.05694 
L 302.255892 128.395119 
L 302.452634 128.585084 
L 302.842483 129.067302 
L 304.661796 130.63891 
L 304.862034 130.84975 
L 305.209553 131.196279 
L 305.432796 131.472429 
L 309.074164 135.156909 
L 309.304653 135.314368 
L 309.729514 135.632865 
L 310.172187 136.035459 
L 310.503918 136.373042 
L 310.640298 136.558831 
L 310.910602 136.757743 
L 313.425208 138.991394 
L 313.731495 139.277087 
L 314.013876 139.452737 
L 316.779279 141.576048 
L 317.103969 141.764223 
L 317.762721 142.336801 
L 318.03898 142.514539 
L 318.637481 143.11843 
L 318.937859 143.388616 
L 319.316843 143.609893 
L 319.562893 143.771229 
L 319.911691 144.014277 
L 320.361553 144.312196 
L 320.964889 144.828113 
L 321.313591 145.078318 
L 322.16663 145.751693 
L 322.514113 146.083013 
L 322.987127 146.458171 
L 323.2803 146.665135 
L 324.280521 147.371613 
L 324.766851 147.758401 
L 325.125255 148.03306 
L 325.568067 148.421936 
L 334.922413 155.095155 
L 335.570385 155.495066 
L 336.489726 156.162179 
L 336.966394 156.510795 
L 344.659366 161.551869 
L 344.994776 161.70903 
L 345.238628 161.882593 
L 345.581191 162.110431 
L 345.846659 162.272363 
L 347.173879 163.108566 
L 347.569586 163.401118 
L 351.072354 165.5459 
L 351.433023 165.784773 
L 352.77953 166.634992 
L 353.127029 166.792451 
L 355.469032 168.041387 
L 355.805611 168.279066 
L 356.591139 168.803333 
L 357.198031 169.197875 
L 359.007802 169.977119 
L 359.714911 170.341541 
L 360.271139 170.685982 
L 360.555809 170.844932 
L 360.84427 171.03937 
L 361.156706 171.200706 
L 361.734709 171.559164 
L 363.845059 172.579964 
L 364.830788 172.942895 
L 365.111871 173.053533 
L 365.7947 173.422429 
L 366.083102 173.593904 
L 366.501006 173.847091 
L 369.962208 175.630135 
L 370.478606 175.833222 
L 371.64053 176.463058 
L 372.843636 177.189814 
L 373.055797 177.295682 
L 377.064059 179.053377 
L 377.636117 179.323563 
L 378.448016 179.658163 
L 380.020167 179.84783 
L 380.740476 179.582118 
L 381.112019 179.299109 
L 381.341326 179.155368 
L 381.875792 178.444417 
L 382.1811 178.036455 
L 382.645606 177.058897 
L 383.000395 176.278163 
L 383.29351 175.546336 
L 383.601209 174.655559 
L 384.84759 170.481107 
L 384.959773 170.059725 
L 387.397057 157.141228 
L 387.635915 155.571111 
L 387.822994 154.329929 
L 388.192171 151.847265 
L 388.637439 148.738047 
L 388.840177 147.271411 
L 388.960723 146.534813 
L 389.325155 143.924513 
L 389.539981 142.819616 
L 389.653408 142.447142 
L 389.780073 141.703685 
L 390.226457 138.781747 
L 390.356828 138.238096 
L 390.557123 136.976635 
L 390.742789 135.906927 
L 391.545212 130.600141 
L 392.06044 127.110695 
L 392.180002 126.415549 
L 394.193703 114.657418 
L 394.328757 114.179971 
L 394.497144 113.102212 
L 394.62445 112.797731 
L 394.772789 112.046819 
L 394.922453 111.594423 
L 396.342481 104.410057 
L 396.812064 102.290027 
L 397.07248 100.882439 
L 397.801294 97.579379 
L 398.094414 96.231732 
L 398.320125 95.134291 
L 399.117782 91.321576 
L 399.360115 90.184173 
L 399.49413 89.843609 
L 399.865852 88.149135 
L 400.003342 87.814237 
L 400.660796 85.316364 
L 400.921465 84.256796 
L 401.173602 83.202596 
L 401.67797 81.097179 
L 402.020653 79.865837 
L 402.178764 79.570304 
L 402.399498 78.76094 
L 402.598533 78.267092 
L 402.808993 77.407032 
L 404.235826 72.486736 
L 404.60992 71.13909 
L 405.092497 69.575832 
L 406.967617 64.17302 
L 407.233024 63.307294 
L 407.491126 62.612745 
L 407.88446 61.381403 
L 409.523159 57.140746 
L 409.753438 56.541626 
L 410.471394 54.996858 
L 410.736852 54.431736 
L 411.089217 53.561238 
L 411.38356 52.834183 
L 414.013854 47.483857 
L 414.463851 46.706702 
L 414.91153 45.860359 
L 416.593563 43.249761 
L 420.08049 39.036241 
L 420.322949 38.778879 
L 420.58965 38.530464 
L 421.031159 38.07926 
L 421.41142 37.686209 
L 421.796176 37.294351 
L 422.085748 37.002098 
L 425.4593 34.518838 
L 425.922632 34.256406 
L 426.108467 34.14368 
L 426.826336 33.877073 
L 429.109442 33.359665 
L 431.803456 33.400223 
L 432.538219 33.566629 
L 433.417858 33.90779 
L 433.927167 34.143382 
L 435.605287 34.854035 
L 435.911825 35.024914 
L 439.052468 36.639167 
L 439.449409 36.946927 
L 439.95135 37.278546 
L 440.415953 37.633723 
L 442.808434 39.169247 
L 444.258812 40.362118 
L 444.629261 40.629321 
L 446.665979 41.497135 
L 447.371765 41.473277 
L 448.206606 41.201899 
L 449.005442 40.753678 
L 449.84635 40.133385 
L 450.383237 39.604346 
L 450.572691 39.389331 
L 450.826145 39.174316 
L 452.430915 37.212341 
L 452.640828 37.020289 
L 453.031657 36.566402 
L 453.858185 35.70664 
L 454.097279 35.471048 
L 455.226445 34.7428 
L 456.364297 34.616057 
L 456.985607 34.784252 
L 458.154861 35.58944 
L 458.454317 35.867975 
L 458.702536 36.108935 
L 459.167063 36.643342 
L 459.620703 37.172977 
L 459.863285 37.480439 
L 460.145577 37.882735 
L 460.434234 38.359883 
L 461.142203 39.368456 
L 461.326837 39.690829 
L 461.7335 40.311719 
L 461.877062 40.563713 
L 462.129192 40.818093 
L 462.348745 41.155675 
L 462.802437 41.84098 
L 464.991258 44.047195 
L 465.336305 44.311118 
L 465.622252 44.484382 
L 466.317298 44.749796 
L 467.236509 44.797213 
L 467.936359 44.53836 
L 468.527605 44.124434 
L 470.490658 41.91792 
L 470.793497 41.476259 
L 471.207318 41.059649 
L 472.551608 39.43466 
L 472.755393 39.192507 
L 472.921825 39.032663 
L 473.250123 38.67331 
L 473.426207 38.394178 
L 473.652109 38.086716 
L 475.151622 36.254466 
L 476.763596 35.509816 
L 477.698676 35.610912 
L 478.147614 35.780598 
L 478.478109 35.95416 
L 479.474715 36.639763 
L 480.325347 37.595849 
L 480.741351 38.197951 
L 480.948184 38.47082 
L 481.14188 38.671521 
L 481.583758 39.314479 
L 481.804693 39.557526 
L 482.107456 40.05883 
L 482.40303 40.499 
L 482.585303 40.723558 
L 482.825402 40.995831 
L 483.329762 41.722587 
L 483.519161 41.98979 
L 484.426439 43.28495 
L 484.609908 43.560504 
L 486.569375 45.646239 
L 486.945752 45.871095 
L 487.49843 46.205099 
L 488.616858 46.566539 
L 489.654456 46.476776 
L 491.153072 45.939685 
L 491.968679 45.469992 
L 492.31016 45.315515 
L 494.351734 44.512117 
L 495.173332 44.433685 
L 496.214585 44.566691 
L 497.206468 44.931113 
L 498.323711 45.809364 
L 499.317905 46.788413 
L 499.712356 47.314768 
L 499.994715 47.714976 
L 500.230008 47.970549 
L 500.891228 48.82196 
L 501.06489 49.111828 
L 501.422075 49.562733 
L 504.679896 54.006775 
L 505.080421 54.639593 
L 506.031216 56.067162 
L 506.223078 56.24311 
L 508.189664 59.421516 
L 508.404639 59.757906 
L 509.603887 61.449993 
L 509.78121 61.68648 
L 510.121595 62.321088 
L 510.806836 63.396461 
L 510.967241 63.738517 
L 511.599079 64.881586 
L 511.757495 65.070954 
L 512.164187 65.704369 
L 512.441843 66.236091 
L 512.68658 66.638088 
L 513.129383 67.433137 
L 513.271752 67.625488 
L 514.323933 69.307734 
L 514.512561 69.573148 
L 514.950095 70.285889 
L 516.706943 72.900364 
L 516.883043 73.162498 
L 517.076131 73.46668 
L 518.076386 75.043954 
L 518.486517 75.742976 
L 519.964521 77.71688 
L 520.178084 78.017483 
L 521.202662 79.405389 
L 521.791341 80.340302 
L 522.341487 80.98326 
L 522.617812 81.391818 
L 522.934076 81.897595 
L 523.435897 82.536974 
L 523.73511 82.951497 
L 524.00534 83.21035 
L 524.281627 83.504095 
L 524.529005 83.802312 
L 524.910349 84.323299 
L 525.116572 84.547559 
L 525.599316 85.173816 
L 526.337645 86.264399 
L 526.69959 86.743038 
L 527.266763 87.519597 
L 527.555053 87.854794 
L 527.884532 88.328662 
L 528.164411 88.639107 
L 528.6026 89.220035 
L 530.145601 91.142049 
L 530.484693 91.649914 
L 531.04096 92.393967 
L 532.710943 94.510419 
L 532.98519 94.658633 
L 533.469623 95.254174 
L 533.924614 95.779932 
L 534.21789 96.131829 
L 535.144296 97.091494 
L 535.853738 97.948274 
L 537.230444 99.194526 
L 537.524869 99.507058 
L 541.370201 103.867003 
L 541.628362 104.144345 
L 541.861662 104.390971 
L 542.590046 105.227771 
L 542.955631 105.674203 
L 543.643406 106.337439 
L 543.80283 106.520247 
L 545.842974 108.527252 
L 546.115667 108.695447 
L 546.689929 109.103409 
L 546.979441 109.467831 
L 547.18589 109.679566 
L 548.528746 110.89033 
L 548.928153 111.265787 
L 549.201978 111.591739 
L 549.786003 112.151792 
L 552.056797 114.11317 
L 552.500704 114.572724 
L 553.434729 115.459623 
L 553.783377 115.705653 
L 556.282095 117.833437 
L 556.699571 118.218138 
L 556.946183 118.411682 
L 557.196746 118.648466 
L 557.771022 119.043605 
L 558.086084 119.263093 
L 559.062381 120.121961 
L 559.281612 120.290752 
L 559.632713 120.581813 
L 559.889718 120.796828 
L 560.502724 121.257872 
L 560.986508 121.628557 
L 561.262881 121.863851 
L 561.791281 122.320124 
L 562.267819 122.708404 
L 562.502069 122.875704 
L 562.854218 123.135452 
L 569.159769 128.123741 
L 569.680074 128.425537 
L 571.621125 129.632126 
L 572.166576 130.068419 
L 572.495915 130.333535 
L 572.7577 130.556602 
L 574.507225 131.663884 
L 574.818533 131.92393 
L 575.274701 132.319069 
L 575.571555 132.554363 
L 575.908156 132.794428 
L 576.463335 133.124257 
L 577.605813 133.862942 
L 578.101675 134.195455 
L 579.049991 134.87897 
L 579.442111 135.182556 
L 581.08399 136.184866 
L 581.580071 136.478611 
L 581.926481 136.720764 
L 582.243862 136.873451 
L 583.347728 137.610049 
L 583.671172 137.808066 
L 584.087322 138.017713 
L 587.90856 140.389141 
L 588.283769 140.580298 
L 588.986032 141.01003 
L 589.197541 141.129616 
L 589.620626 141.371172 
L 590.264989 141.79315 
L 592.476658 142.92429 
L 593.976332 143.721128 
L 594.372209 143.990121 
L 594.944036 144.310705 
L 595.436338 144.590732 
L 597.546543 145.598708 
L 598.469718 146.123571 
L 598.840339 146.343059 
L 599.773868 146.946354 
L 600.501513 147.375788 
L 600.965985 147.6582 
L 602.532234 148.376607 
L 603.853742 149.141833 
L 604.265882 149.40337 
L 604.726813 149.660732 
L 605.085188 149.878133 
L 605.436237 150.057959 
L 608.377839 151.328963 
L 608.644558 151.471213 
L 609.038152 151.65074 
L 611.894961 153.188351 
L 612.363243 153.349388 
L 613.457512 153.858148 
L 614.807747 154.656775 
L 615.115406 154.873878 
L 617.957981 156.150548 
L 618.548024 156.363774 
L 619.055982 156.580877 
L 619.415654 156.772631 
L 620.27943 157.343121 
L 620.579794 157.51072 
L 621.008273 157.73826 
L 621.335144 157.930014 
L 621.804479 158.142643 
L 622.341559 158.361833 
L 624.778853 159.317621 
L 625.198633 159.532338 
L 625.756075 159.81654 
L 629.602607 161.597198 
L 630.144295 161.786865 
L 633.416554 163.394259 
L 633.882189 163.55798 
L 636.12637 164.341995 
L 636.397907 164.441301 
L 636.948039 164.648563 
L 640.660736 166.522564 
L 641.548837 166.863426 
L 643.149768 167.442864 
L 643.672251 167.639986 
L 644.189927 167.858579 
L 645.437416 168.432649 
L 646.365276 168.857013 
L 652.48136 171.139572 
L 652.916955 171.34057 
L 655.093302 172.148144 
L 655.8079 172.396858 
L 658.777268 173.458811 
L 659.631396 173.775817 
L 660.600333 174.098787 
L 661.339922 174.336765 
L 664.09456 175.32476 
L 665.58587 175.808171 
L 666.178294 176.03094 
L 667.399391 176.47439 
L 667.743409 176.59994 
L 668.999177 177.039811 
L 677.09282 179.729735 
L 679.058426 179.734805 
L 680.257722 179.186383 
L 681.611575 177.887942 
L 682.167599 177.085438 
L 682.439058 176.655408 
L 682.609222 176.421307 
L 683.380288 174.866996 
L 683.532289 174.580707 
L 683.751815 174.162307 
L 684.323829 172.841799 
L 684.759293 171.626263 
L 684.951161 171.09633 
L 685.192662 170.417288 
L 685.512272 169.450168 
L 687.647882 161.966392 
L 687.945821 160.786642 
L 688.101508 160.410888 
L 688.433322 159.160759 
L 688.789191 157.865897 
L 689.326122 155.822807 
L 689.9608 153.571859 
L 690.169682 152.785459 
L 690.460316 151.69756 
L 690.743856 150.513635 
L 690.932185 149.791948 
L 691.145721 148.889243 
L 691.817679 146.312939 
L 692.081994 145.162117 
L 692.266627 144.40017 
L 692.542912 143.216544 
L 692.933892 141.424553 
L 693.336754 139.563674 
L 693.694927 137.874568 
L 694.107865 136.148782 
L 694.444385 134.360072 
L 694.817189 132.511121 
L 695.471183 128.896125 
L 695.620754 128.330704 
L 695.915244 126.871822 
L 696.116676 125.831937 
L 696.291738 124.939073 
L 696.651231 122.651146 
L 697.063892 120.15059 
L 697.250901 118.862587 
L 697.376456 118.376492 
L 699.939053 101.983757 
L 700.100979 100.787606 
L 700.222618 100.107967 
L 700.556874 98.066965 
L 700.772907 96.714249 
L 701.376086 93.020821 
L 701.911242 89.50543 
L 702.352305 86.876938 
L 702.489831 85.927114 
L 703.651702 79.504099 
L 703.782024 78.899612 
L 704.071616 77.291025 
L 704.361149 75.849738 
L 704.598907 74.587979 
L 707.073469 62.303791 
L 707.425955 60.80972 
L 707.825255 59.16982 
L 708.125589 57.907166 
L 708.446637 56.667176 
L 708.91854 55.031452 
L 709.186194 53.988882 
L 709.560391 52.736069 
L 709.801706 52.074026 
L 709.959648 51.653538 
L 710.276967 50.57906 
L 710.404873 50.335118 
L 710.673902 49.621184 
L 711.10461 48.355548 
L 711.543814 47.053529 
L 711.921479 46.106091 
L 712.264112 45.199807 
L 712.556185 44.436369 
L 714.546906 40.623655 
L 714.823312 40.192134 
L 715.07307 39.819361 
L 715.254101 39.590032 
L 715.51582 39.118848 
L 715.940527 38.408791 
L 716.214396 37.9722 
L 717.6479 36.017681 
L 717.922527 35.681291 
L 718.888314 34.563571 
L 720.032177 33.277954 
L 720.351744 32.967807 
L 722.913279 31.204445 
L 724.815942 30.509598 
L 727.546442 30.166647 
L 729.159756 30.267445 
L 731.05036 30.636639 
L 732.477644 30.979589 
L 733.605754 31.287648 
L 734.50708 31.588848 
L 735.180328 31.85963 
L 735.607477 32.041245 
L 735.953783 32.209738 
L 736.593227 32.470678 
L 739.475781 33.685021 
L 739.814719 33.857987 
L 740.168272 34.020814 
L 745.435172 37.803111 
L 745.634029 37.958184 
L 746.031031 38.296065 
L 746.344681 38.583845 
L 746.926253 39.188929 
L 747.644252 39.972049 
L 749.557746 41.41095 
L 749.983622 41.559462 
L 750.492989 41.637893 
L 751.248126 41.494451 
L 752.032371 40.945432 
L 752.294026 40.769185 
L 752.45846 40.593237 
L 753.079696 39.907634 
L 753.724084 39.042504 
L 753.943594 38.768442 
L 754.425016 38.074489 
L 754.647241 37.759869 
L 754.942699 37.439881 
L 755.196078 37.027148 
L 755.391487 36.704476 
L 755.655719 36.240748 
L 758.095656 32.365109 
L 759.434702 31.125716 
L 760.522986 30.821832 
L 761.154097 30.865372 
L 762.766055 31.602268 
L 764.727893 33.54456 
L 765.070664 33.937612 
L 765.574957 34.595182 
L 765.949098 35.138833 
L 768.276324 38.861486 
L 768.716859 39.638343 
L 768.97136 40.068671 
L 769.270812 40.558047 
L 769.767677 41.277348 
L 770.754672 42.669727 
L 772.524627 43.972641 
L 773.273988 44.145905 
L 773.779506 44.066878 
L 774.573398 43.791921 
L 775.501265 43.173715 
L 776.806848 41.792669 
L 777.336465 41.197724 
L 777.850642 40.503175 
L 778.282448 39.941929 
L 778.965334 39.182666 
L 779.698911 38.542094 
L 780.041749 38.260577 
L 781.409833 37.560361 
L 782.554854 37.616725 
L 783.137642 37.903908 
L 783.849451 38.304713 
L 784.704933 39.139425 
L 785.114654 39.576016 
L 785.328807 39.854253 
L 785.652156 40.278915 
L 785.995959 40.741153 
L 786.423102 41.283313 
L 786.747601 41.761952 
L 788.538201 44.180797 
L 789.005108 44.883696 
L 789.725529 45.909267 
L 792.210948 49.714526 
L 792.53066 50.244161 
L 792.835924 50.739799 
L 793.320984 51.542303 
L 794.119999 52.694319 
L 794.462375 53.196517 
L 795.317852 54.480941 
L 795.506133 54.811665 
L 795.712418 55.110181 
L 796.013101 55.628185 
L 796.222745 55.877794 
L 797.899842 58.491374 
L 798.15214 58.862656 
L 801.14454 63.609687 
L 801.811584 64.743213 
L 802.370225 65.663214 
L 802.803605 66.382516 
L 803.103809 66.890977 
L 803.887575 68.124108 
L 804.141459 68.587538 
L 804.598734 69.353362 
L 804.855794 69.768183 
L 805.194773 70.238174 
L 805.541032 70.775264 
L 805.799278 71.201417 
L 806.390491 72.129173 
L 806.756075 72.654931 
L 806.951572 72.849667 
L 807.329287 73.474732 
L 807.517524 73.815893 
L 807.773203 74.066396 
L 808.304123 74.790469 
L 808.858065 75.606094 
L 809.605956 76.59737 
L 809.80509 76.887238 
L 810.209245 77.430591 
L 810.478335 77.755052 
L 812.196517 79.97916 
L 812.416028 80.302727 
L 812.998952 81.099863 
L 813.386162 81.630392 
L 813.861498 82.250685 
L 814.876196 83.691375 
L 816.237241 85.414478 
L 816.561861 85.772041 
L 817.433003 86.853081 
L 817.878194 87.49246 
L 819.170385 88.964164 
L 819.414438 89.147867 
L 820.116294 90.095006 
L 820.357774 90.377717 
L 820.916302 91.016798 
L 821.151527 91.289667 
L 821.626913 91.828248 
L 821.899591 92.186408 
L 822.154246 92.404703 
L 822.515157 92.773002 
L 822.908314 93.228083 
L 823.142459 93.529283 
L 823.55619 94.032972 
L 824.581754 95.071069 
L 826.841697 97.497369 
L 827.105931 97.77322 
L 827.332831 97.952151 
L 828.855475 99.487078 
L 829.069156 99.69583 
L 829.778499 100.463145 
L 830.060806 100.777765 
L 830.471008 101.136819 
L 830.861976 101.531957 
L 832.864854 103.541051 
L 833.436847 104.046232 
L 834.165528 104.75599 
L 834.605957 105.197352 
L 835.534983 105.98763 
L 835.851088 106.255429 
L 836.256523 106.646691 
L 838.137574 108.424964 
L 838.355942 108.617314 
L 838.997149 109.205101 
L 839.571021 109.684337 
L 840.341998 110.415866 
L 841.542398 111.522552 
L 841.856125 111.742935 
L 842.511436 112.295831 
L 843.067555 112.840973 
L 843.945908 113.636618 
L 844.285162 113.919329 
L 845.835423 115.221347 
L 846.221553 115.576525 
L 846.605163 115.930211 
L 846.958847 116.212922 
L 848.039859 117.03809 
L 848.687895 117.626772 
L 849.026745 117.939006 
L 849.315163 118.126585 
L 849.550343 118.353529 
L 850.071703 118.733459 
L 850.570073 119.02273 
L 851.741509 119.906349 
L 851.981228 120.114505 
L 854.274076 121.924986 
L 854.525056 122.154315 
L 855.654495 123.143802 
L 856.286651 123.573534 
L 856.588294 123.730993 
L 856.98294 123.995512 
L 857.400358 124.319078 
L 857.714005 124.53797 
L 858.520014 125.251605 
L 858.73963 125.439184 
L 859.079804 125.654199 
L 860.006506 126.28314 
L 860.422811 126.544976 
L 864.398366 129.193746 
L 864.732587 129.382816 
L 864.888191 129.506577 
L 865.341935 129.864736 
L 865.784726 130.229457 
L 868.250983 131.832079 
L 868.58763 132.025921 
L 869.334414 132.535575 
L 870.781108 133.47675 
L 871.303544 133.782722 
L 871.62568 134.000421 
L 871.950297 134.198437 
L 872.265183 134.403015 
L 873.643138 135.205817 
L 874.049841 135.487931 
L 875.228484 136.248088 
L 875.662858 136.537658 
L 876.301099 136.938761 
L 876.811539 137.271572 
L 877.190391 137.489271 
L 877.501665 137.684902 
L 878.879522 138.570907 
L 879.3658 138.897157 
L 880.291245 139.472419 
L 880.902067 139.874715 
L 883.021721 140.924144 
L 883.935034 141.49374 
L 889.848466 144.707633 
L 890.54602 145.060425 
L 891.068247 145.269177 
L 893.379978 146.442664 
L 893.715409 146.676765 
L 894.307829 147.056993 
L 895.627832 147.755121 
L 896.902058 148.269546 
L 899.056861 149.585283 
L 901.271014 150.65678 
L 901.817491 150.821396 
L 906.603919 153.298095 
L 908.098898 153.859043 
L 909.814628 154.806481 
L 910.160892 155.021197 
L 912.24463 155.907203 
L 913.390894 156.342899 
L 914.006301 156.619645 
L 914.429758 156.83138 
L 915.033003 157.188644 
L 915.71839 157.606448 
L 916.654644 158.073755 
L 916.840373 158.141749 
L 917.948144 158.557762 
L 918.083334 158.604881 
L 918.633411 158.784408 
L 924.961757 161.600479 
L 927.051579 162.305764 
L 927.501549 162.516306 
L 928.407704 162.974666 
L 936.146642 166.20347 
L 936.552016 166.382401 
L 937.401452 166.716107 
L 942.990356 168.903534 
L 943.954231 169.244696 
L 944.636047 169.502952 
L 945.29608 169.740035 
L 947.2362 170.426533 
L 948.136161 170.751292 
L 951.190077 171.828753 
L 951.75592 172.049434 
L 953.405336 172.672113 
L 953.941002 172.886233 
L 954.73512 173.181767 
L 956.352917 173.761204 
L 957.093785 174.004848 
L 958.866201 174.606055 
L 959.166574 174.698205 
L 960.078761 174.993738 
L 960.572318 175.156267 
L 961.345742 175.410051 
L 963.504177 176.175874 
L 964.447788 176.519123 
L 966.658183 177.258703 
L 967.103416 177.422424 
L 967.876824 177.704837 
L 968.641894 177.994704 
L 971.053676 178.876833 
L 971.792116 179.134493 
L 972.131136 179.204276 
L 972.131136 179.204276 
" clip-path="url(#p199d28e264)" style="fill: none; stroke: #007091; stroke-width: 3; stroke-linecap: square"/>
   </g>
   <g id="patch_7">
    <path d="M 53.93 300.76 
L 53.93 17.28 
" style="fill: none; stroke: #000000; stroke-width: 0.8; stroke-linejoin: miter; stroke-linecap: square"/>
   </g>
   <g id="patch_8">
    <path d="M 1015.855 300.76 
L 1015.855 17.28 
" style="fill: none; stroke: #000000; stroke-width: 0.8; stroke-linejoin: miter; stroke-linecap: square"/>
   </g>
   <g id="patch_9">
    <path d="M 53.93 300.76 
L 1015.855 300.76 
" style="fill: none; stroke: #000000; stroke-width: 0.8; stroke-linejoin: miter; stroke-linecap: square"/>
   </g>
   <g id="patch_10">
    <path d="M 53.93 17.28 
L 1015.855 17.28 
" style="fill: none; stroke: #000000; stroke-width: 0.8; stroke-linejoin: miter; stroke-linecap: square"/>
   </g>
  </g>
 </g>
 <defs>
  <clipPath id="p199d28e264">
   <rect x="53.93" y="17.28" width="961.925" height="283.48"/>
  </clipPath>
 </defs>
</svg>
