<?xml version="1.0" encoding="utf-8" standalone="no"?>
<!DOCTYPE svg PUBLIC "-//W3C//DTD SVG 1.1//EN"
  "http://www.w3.org/Graphics/SVG/1.1/DTD/svg11.dtd">
<svg xmlns:xlink="http://www.w3.org/1999/xlink" width="1080pt" height="216pt" viewBox="0 0 1080 216" xmlns="http://www.w3.org/2000/svg" version="1.1">
 <metadata>
  <rdf:RDF xmlns:dc="http://purl.org/dc/elements/1.1/" xmlns:cc="http://creativecommons.org/ns#" xmlns:rdf="http://www.w3.org/1999/02/22-rdf-syntax-ns#">
   <cc:Work>
    <dc:type rdf:resource="http://purl.org/dc/dcmitype/StillImage"/>
    <dc:date>2025-02-04T19:30:29.205209</dc:date>
    <dc:format>image/svg+xml</dc:format>
    <dc:creator>
     <cc:Agent>
      <dc:title>Matplotlib v3.9.0, https://matplotlib.org/</dc:title>
     </cc:Agent>
    </dc:creator>
   </cc:Work>
  </rdf:RDF>
 </metadata>
 <defs>
  <style type="text/css">*{stroke-linejoin: round; stroke-linecap: butt}</style>
 </defs>
 <g id="figure_1">
  <g id="patch_1">
   <path d="M 0 216 
L 1080 216 
L 1080 0 
L 0 0 
z
" style="fill: #ffffff"/>
  </g>
  <g id="axes_1">
   <g id="patch_2">
    <path d="M 52.94 158.92 
L 1016.8 158.92 
L 1016.8 17.28 
L 52.94 17.28 
z
" style="fill: #ffffff"/>
   </g>
   <g id="matplotlib.axis_1">
    <g id="xtick_1">
     <g id="line2d_1">
      <defs>
       <path id="me62597a53c" d="M 0 0 
L 0 3.5 
" style="stroke: #000000; stroke-width: 0.8"/>
      </defs>
      <g>
       <use xlink:href="#me62597a53c" x="96.751818" y="158.92" style="stroke: #000000; stroke-width: 0.8"/>
      </g>
     </g>
     <g id="text_1">
      <!-- 0 -->
      <g transform="translate(91.661818 178.0775) scale(0.16 -0.16)">
       <defs>
        <path id="DejaVuSans-30" d="M 2034 4250 
Q 1547 4250 1301 3770 
Q 1056 3291 1056 2328 
Q 1056 1369 1301 889 
Q 1547 409 2034 409 
Q 2525 409 2770 889 
Q 3016 1369 3016 2328 
Q 3016 3291 2770 3770 
Q 2525 4250 2034 4250 
z
M 2034 4750 
Q 2819 4750 3233 4129 
Q 3647 3509 3647 2328 
Q 3647 1150 3233 529 
Q 2819 -91 2034 -91 
Q 1250 -91 836 529 
Q 422 1150 422 2328 
Q 422 3509 836 4129 
Q 1250 4750 2034 4750 
z
" transform="scale(0.015625)"/>
       </defs>
       <use xlink:href="#DejaVuSans-30"/>
      </g>
     </g>
    </g>
    <g id="xtick_2">
     <g id="line2d_2">
      <g>
       <use xlink:href="#me62597a53c" x="217.654774" y="158.92" style="stroke: #000000; stroke-width: 0.8"/>
      </g>
     </g>
     <g id="text_2">
      <!-- 100 -->
      <g transform="translate(202.384774 178.0775) scale(0.16 -0.16)">
       <defs>
        <path id="DejaVuSans-31" d="M 794 531 
L 1825 531 
L 1825 4091 
L 703 3866 
L 703 4441 
L 1819 4666 
L 2450 4666 
L 2450 531 
L 3481 531 
L 3481 0 
L 794 0 
L 794 531 
z
" transform="scale(0.015625)"/>
       </defs>
       <use xlink:href="#DejaVuSans-31"/>
       <use xlink:href="#DejaVuSans-30" x="63.623047"/>
       <use xlink:href="#DejaVuSans-30" x="127.246094"/>
      </g>
     </g>
    </g>
    <g id="xtick_3">
     <g id="line2d_3">
      <g>
       <use xlink:href="#me62597a53c" x="338.557731" y="158.92" style="stroke: #000000; stroke-width: 0.8"/>
      </g>
     </g>
     <g id="text_3">
      <!-- 200 -->
      <g transform="translate(323.287731 178.0775) scale(0.16 -0.16)">
       <defs>
        <path id="DejaVuSans-32" d="M 1228 531 
L 3431 531 
L 3431 0 
L 469 0 
L 469 531 
Q 828 903 1448 1529 
Q 2069 2156 2228 2338 
Q 2531 2678 2651 2914 
Q 2772 3150 2772 3378 
Q 2772 3750 2511 3984 
Q 2250 4219 1831 4219 
Q 1534 4219 1204 4116 
Q 875 4013 500 3803 
L 500 4441 
Q 881 4594 1212 4672 
Q 1544 4750 1819 4750 
Q 2544 4750 2975 4387 
Q 3406 4025 3406 3419 
Q 3406 3131 3298 2873 
Q 3191 2616 2906 2266 
Q 2828 2175 2409 1742 
Q 1991 1309 1228 531 
z
" transform="scale(0.015625)"/>
       </defs>
       <use xlink:href="#DejaVuSans-32"/>
       <use xlink:href="#DejaVuSans-30" x="63.623047"/>
       <use xlink:href="#DejaVuSans-30" x="127.246094"/>
      </g>
     </g>
    </g>
    <g id="xtick_4">
     <g id="line2d_4">
      <g>
       <use xlink:href="#me62597a53c" x="459.460687" y="158.92" style="stroke: #000000; stroke-width: 0.8"/>
      </g>
     </g>
     <g id="text_4">
      <!-- 300 -->
      <g transform="translate(444.190687 178.0775) scale(0.16 -0.16)">
       <defs>
        <path id="DejaVuSans-33" d="M 2597 2516 
Q 3050 2419 3304 2112 
Q 3559 1806 3559 1356 
Q 3559 666 3084 287 
Q 2609 -91 1734 -91 
Q 1441 -91 1130 -33 
Q 819 25 488 141 
L 488 750 
Q 750 597 1062 519 
Q 1375 441 1716 441 
Q 2309 441 2620 675 
Q 2931 909 2931 1356 
Q 2931 1769 2642 2001 
Q 2353 2234 1838 2234 
L 1294 2234 
L 1294 2753 
L 1863 2753 
Q 2328 2753 2575 2939 
Q 2822 3125 2822 3475 
Q 2822 3834 2567 4026 
Q 2313 4219 1838 4219 
Q 1578 4219 1281 4162 
Q 984 4106 628 3988 
L 628 4550 
Q 988 4650 1302 4700 
Q 1616 4750 1894 4750 
Q 2613 4750 3031 4423 
Q 3450 4097 3450 3541 
Q 3450 3153 3228 2886 
Q 3006 2619 2597 2516 
z
" transform="scale(0.015625)"/>
       </defs>
       <use xlink:href="#DejaVuSans-33"/>
       <use xlink:href="#DejaVuSans-30" x="63.623047"/>
       <use xlink:href="#DejaVuSans-30" x="127.246094"/>
      </g>
     </g>
    </g>
    <g id="xtick_5">
     <g id="line2d_5">
      <g>
       <use xlink:href="#me62597a53c" x="580.363643" y="158.92" style="stroke: #000000; stroke-width: 0.8"/>
      </g>
     </g>
     <g id="text_5">
      <!-- 400 -->
      <g transform="translate(565.093643 178.0775) scale(0.16 -0.16)">
       <defs>
        <path id="DejaVuSans-34" d="M 2419 4116 
L 825 1625 
L 2419 1625 
L 2419 4116 
z
M 2253 4666 
L 3047 4666 
L 3047 1625 
L 3713 1625 
L 3713 1100 
L 3047 1100 
L 3047 0 
L 2419 0 
L 2419 1100 
L 313 1100 
L 313 1709 
L 2253 4666 
z
" transform="scale(0.015625)"/>
       </defs>
       <use xlink:href="#DejaVuSans-34"/>
       <use xlink:href="#DejaVuSans-30" x="63.623047"/>
       <use xlink:href="#DejaVuSans-30" x="127.246094"/>
      </g>
     </g>
    </g>
    <g id="xtick_6">
     <g id="line2d_6">
      <g>
       <use xlink:href="#me62597a53c" x="701.266599" y="158.92" style="stroke: #000000; stroke-width: 0.8"/>
      </g>
     </g>
     <g id="text_6">
      <!-- 500 -->
      <g transform="translate(685.996599 178.0775) scale(0.16 -0.16)">
       <defs>
        <path id="DejaVuSans-35" d="M 691 4666 
L 3169 4666 
L 3169 4134 
L 1269 4134 
L 1269 2991 
Q 1406 3038 1543 3061 
Q 1681 3084 1819 3084 
Q 2600 3084 3056 2656 
Q 3513 2228 3513 1497 
Q 3513 744 3044 326 
Q 2575 -91 1722 -91 
Q 1428 -91 1123 -41 
Q 819 9 494 109 
L 494 744 
Q 775 591 1075 516 
Q 1375 441 1709 441 
Q 2250 441 2565 725 
Q 2881 1009 2881 1497 
Q 2881 1984 2565 2268 
Q 2250 2553 1709 2553 
Q 1456 2553 1204 2497 
Q 953 2441 691 2322 
L 691 4666 
z
" transform="scale(0.015625)"/>
       </defs>
       <use xlink:href="#DejaVuSans-35"/>
       <use xlink:href="#DejaVuSans-30" x="63.623047"/>
       <use xlink:href="#DejaVuSans-30" x="127.246094"/>
      </g>
     </g>
    </g>
    <g id="xtick_7">
     <g id="line2d_7">
      <g>
       <use xlink:href="#me62597a53c" x="822.169555" y="158.92" style="stroke: #000000; stroke-width: 0.8"/>
      </g>
     </g>
     <g id="text_7">
      <!-- 600 -->
      <g transform="translate(806.899555 178.0775) scale(0.16 -0.16)">
       <defs>
        <path id="DejaVuSans-36" d="M 2113 2584 
Q 1688 2584 1439 2293 
Q 1191 2003 1191 1497 
Q 1191 994 1439 701 
Q 1688 409 2113 409 
Q 2538 409 2786 701 
Q 3034 994 3034 1497 
Q 3034 2003 2786 2293 
Q 2538 2584 2113 2584 
z
M 3366 4563 
L 3366 3988 
Q 3128 4100 2886 4159 
Q 2644 4219 2406 4219 
Q 1781 4219 1451 3797 
Q 1122 3375 1075 2522 
Q 1259 2794 1537 2939 
Q 1816 3084 2150 3084 
Q 2853 3084 3261 2657 
Q 3669 2231 3669 1497 
Q 3669 778 3244 343 
Q 2819 -91 2113 -91 
Q 1303 -91 875 529 
Q 447 1150 447 2328 
Q 447 3434 972 4092 
Q 1497 4750 2381 4750 
Q 2619 4750 2861 4703 
Q 3103 4656 3366 4563 
z
" transform="scale(0.015625)"/>
       </defs>
       <use xlink:href="#DejaVuSans-36"/>
       <use xlink:href="#DejaVuSans-30" x="63.623047"/>
       <use xlink:href="#DejaVuSans-30" x="127.246094"/>
      </g>
     </g>
    </g>
    <g id="xtick_8">
     <g id="line2d_8">
      <g>
       <use xlink:href="#me62597a53c" x="943.072512" y="158.92" style="stroke: #000000; stroke-width: 0.8"/>
      </g>
     </g>
     <g id="text_8">
      <!-- 700 -->
      <g transform="translate(927.802512 178.0775) scale(0.16 -0.16)">
       <defs>
        <path id="DejaVuSans-37" d="M 525 4666 
L 3525 4666 
L 3525 4397 
L 1831 0 
L 1172 0 
L 2766 4134 
L 525 4134 
L 525 4666 
z
" transform="scale(0.015625)"/>
       </defs>
       <use xlink:href="#DejaVuSans-37"/>
       <use xlink:href="#DejaVuSans-30" x="63.623047"/>
       <use xlink:href="#DejaVuSans-30" x="127.246094"/>
      </g>
     </g>
    </g>
    <g id="text_9">
     <!-- Time [s] -->
     <g transform="translate(502.34375 197.5625) scale(0.16 -0.16)">
      <defs>
       <path id="DejaVuSans-54" d="M -19 4666 
L 3928 4666 
L 3928 4134 
L 2272 4134 
L 2272 0 
L 1638 0 
L 1638 4134 
L -19 4134 
L -19 4666 
z
" transform="scale(0.015625)"/>
       <path id="DejaVuSans-69" d="M 603 3500 
L 1178 3500 
L 1178 0 
L 603 0 
L 603 3500 
z
M 603 4863 
L 1178 4863 
L 1178 4134 
L 603 4134 
L 603 4863 
z
" transform="scale(0.015625)"/>
       <path id="DejaVuSans-6d" d="M 3328 2828 
Q 3544 3216 3844 3400 
Q 4144 3584 4550 3584 
Q 5097 3584 5394 3201 
Q 5691 2819 5691 2113 
L 5691 0 
L 5113 0 
L 5113 2094 
Q 5113 2597 4934 2840 
Q 4756 3084 4391 3084 
Q 3944 3084 3684 2787 
Q 3425 2491 3425 1978 
L 3425 0 
L 2847 0 
L 2847 2094 
Q 2847 2600 2669 2842 
Q 2491 3084 2119 3084 
Q 1678 3084 1418 2786 
Q 1159 2488 1159 1978 
L 1159 0 
L 581 0 
L 581 3500 
L 1159 3500 
L 1159 2956 
Q 1356 3278 1631 3431 
Q 1906 3584 2284 3584 
Q 2666 3584 2933 3390 
Q 3200 3197 3328 2828 
z
" transform="scale(0.015625)"/>
       <path id="DejaVuSans-65" d="M 3597 1894 
L 3597 1613 
L 953 1613 
Q 991 1019 1311 708 
Q 1631 397 2203 397 
Q 2534 397 2845 478 
Q 3156 559 3463 722 
L 3463 178 
Q 3153 47 2828 -22 
Q 2503 -91 2169 -91 
Q 1331 -91 842 396 
Q 353 884 353 1716 
Q 353 2575 817 3079 
Q 1281 3584 2069 3584 
Q 2775 3584 3186 3129 
Q 3597 2675 3597 1894 
z
M 3022 2063 
Q 3016 2534 2758 2815 
Q 2500 3097 2075 3097 
Q 1594 3097 1305 2825 
Q 1016 2553 972 2059 
L 3022 2063 
z
" transform="scale(0.015625)"/>
       <path id="DejaVuSans-20" transform="scale(0.015625)"/>
       <path id="DejaVuSans-5b" d="M 550 4863 
L 1875 4863 
L 1875 4416 
L 1125 4416 
L 1125 -397 
L 1875 -397 
L 1875 -844 
L 550 -844 
L 550 4863 
z
" transform="scale(0.015625)"/>
       <path id="DejaVuSans-73" d="M 2834 3397 
L 2834 2853 
Q 2591 2978 2328 3040 
Q 2066 3103 1784 3103 
Q 1356 3103 1142 2972 
Q 928 2841 928 2578 
Q 928 2378 1081 2264 
Q 1234 2150 1697 2047 
L 1894 2003 
Q 2506 1872 2764 1633 
Q 3022 1394 3022 966 
Q 3022 478 2636 193 
Q 2250 -91 1575 -91 
Q 1294 -91 989 -36 
Q 684 19 347 128 
L 347 722 
Q 666 556 975 473 
Q 1284 391 1588 391 
Q 1994 391 2212 530 
Q 2431 669 2431 922 
Q 2431 1156 2273 1281 
Q 2116 1406 1581 1522 
L 1381 1569 
Q 847 1681 609 1914 
Q 372 2147 372 2553 
Q 372 3047 722 3315 
Q 1072 3584 1716 3584 
Q 2034 3584 2315 3537 
Q 2597 3491 2834 3397 
z
" transform="scale(0.015625)"/>
       <path id="DejaVuSans-5d" d="M 1947 4863 
L 1947 -844 
L 622 -844 
L 622 -397 
L 1369 -397 
L 1369 4416 
L 622 4416 
L 622 4863 
L 1947 4863 
z
" transform="scale(0.015625)"/>
      </defs>
      <use xlink:href="#DejaVuSans-54"/>
      <use xlink:href="#DejaVuSans-69" x="57.958984"/>
      <use xlink:href="#DejaVuSans-6d" x="85.742188"/>
      <use xlink:href="#DejaVuSans-65" x="183.154297"/>
      <use xlink:href="#DejaVuSans-20" x="244.677734"/>
      <use xlink:href="#DejaVuSans-5b" x="276.464844"/>
      <use xlink:href="#DejaVuSans-73" x="315.478516"/>
      <use xlink:href="#DejaVuSans-5d" x="367.578125"/>
     </g>
    </g>
   </g>
   <g id="matplotlib.axis_2">
    <g id="ytick_1">
     <g id="line2d_9">
      <defs>
       <path id="mcfb8fa1b7b" d="M 0 0 
L -3.5 0 
" style="stroke: #000000; stroke-width: 0.8"/>
      </defs>
      <g>
       <use xlink:href="#mcfb8fa1b7b" x="52.94" y="152.734847" style="stroke: #000000; stroke-width: 0.8"/>
      </g>
     </g>
     <g id="text_10">
      <!-- 0 -->
      <g style="fill: #a00000" transform="translate(35.76 158.813597) scale(0.16 -0.16)">
       <use xlink:href="#DejaVuSans-30"/>
      </g>
     </g>
    </g>
    <g id="ytick_2">
     <g id="line2d_10">
      <g>
       <use xlink:href="#mcfb8fa1b7b" x="52.94" y="29.03179" style="stroke: #000000; stroke-width: 0.8"/>
      </g>
     </g>
     <g id="text_11">
      <!-- 1 -->
      <g style="fill: #a00000" transform="translate(35.76 35.11054) scale(0.16 -0.16)">
       <use xlink:href="#DejaVuSans-31"/>
      </g>
     </g>
    </g>
    <g id="text_12">
     <!-- Stiffness -->
     <g style="fill: #a00000" transform="translate(28.4325 122.4975) rotate(-90) scale(0.16 -0.16)">
      <defs>
       <path id="DejaVuSans-53" d="M 3425 4513 
L 3425 3897 
Q 3066 4069 2747 4153 
Q 2428 4238 2131 4238 
Q 1616 4238 1336 4038 
Q 1056 3838 1056 3469 
Q 1056 3159 1242 3001 
Q 1428 2844 1947 2747 
L 2328 2669 
Q 3034 2534 3370 2195 
Q 3706 1856 3706 1288 
Q 3706 609 3251 259 
Q 2797 -91 1919 -91 
Q 1588 -91 1214 -16 
Q 841 59 441 206 
L 441 856 
Q 825 641 1194 531 
Q 1563 422 1919 422 
Q 2459 422 2753 634 
Q 3047 847 3047 1241 
Q 3047 1584 2836 1778 
Q 2625 1972 2144 2069 
L 1759 2144 
Q 1053 2284 737 2584 
Q 422 2884 422 3419 
Q 422 4038 858 4394 
Q 1294 4750 2059 4750 
Q 2388 4750 2728 4690 
Q 3069 4631 3425 4513 
z
" transform="scale(0.015625)"/>
       <path id="DejaVuSans-74" d="M 1172 4494 
L 1172 3500 
L 2356 3500 
L 2356 3053 
L 1172 3053 
L 1172 1153 
Q 1172 725 1289 603 
Q 1406 481 1766 481 
L 2356 481 
L 2356 0 
L 1766 0 
Q 1100 0 847 248 
Q 594 497 594 1153 
L 594 3053 
L 172 3053 
L 172 3500 
L 594 3500 
L 594 4494 
L 1172 4494 
z
" transform="scale(0.015625)"/>
       <path id="DejaVuSans-66" d="M 2375 4863 
L 2375 4384 
L 1825 4384 
Q 1516 4384 1395 4259 
Q 1275 4134 1275 3809 
L 1275 3500 
L 2222 3500 
L 2222 3053 
L 1275 3053 
L 1275 0 
L 697 0 
L 697 3053 
L 147 3053 
L 147 3500 
L 697 3500 
L 697 3744 
Q 697 4328 969 4595 
Q 1241 4863 1831 4863 
L 2375 4863 
z
" transform="scale(0.015625)"/>
       <path id="DejaVuSans-6e" d="M 3513 2113 
L 3513 0 
L 2938 0 
L 2938 2094 
Q 2938 2591 2744 2837 
Q 2550 3084 2163 3084 
Q 1697 3084 1428 2787 
Q 1159 2491 1159 1978 
L 1159 0 
L 581 0 
L 581 3500 
L 1159 3500 
L 1159 2956 
Q 1366 3272 1645 3428 
Q 1925 3584 2291 3584 
Q 2894 3584 3203 3211 
Q 3513 2838 3513 2113 
z
" transform="scale(0.015625)"/>
      </defs>
      <use xlink:href="#DejaVuSans-53"/>
      <use xlink:href="#DejaVuSans-74" x="63.476562"/>
      <use xlink:href="#DejaVuSans-69" x="102.685547"/>
      <use xlink:href="#DejaVuSans-66" x="130.46875"/>
      <use xlink:href="#DejaVuSans-66" x="165.673828"/>
      <use xlink:href="#DejaVuSans-6e" x="200.878906"/>
      <use xlink:href="#DejaVuSans-65" x="264.257812"/>
      <use xlink:href="#DejaVuSans-73" x="325.78125"/>
      <use xlink:href="#DejaVuSans-73" x="377.880859"/>
     </g>
    </g>
   </g>
   <g id="line2d_11">
    <path d="M 96.751818 152.734847 
L 164.274186 152.734847 
L 164.365022 29.03179 
L 164.462832 152.734847 
L 164.60786 29.03179 
L 293.848972 29.03179 
L 293.973499 152.734847 
L 294.000058 29.03179 
L 294.072604 152.734847 
L 416.780337 152.734847 
L 416.913319 29.03179 
L 557.532175 29.03179 
L 557.724539 152.734847 
L 714.981378 152.734847 
L 715.107034 29.03179 
L 715.180798 29.03179 
L 715.217099 152.734847 
L 715.261827 29.03179 
L 850.343529 29.03179 
L 850.481291 152.734847 
L 972.988182 152.734847 
L 972.988182 152.734847 
" clip-path="url(#p80a0cee906)" style="fill: none; stroke: #a00000; stroke-width: 3; stroke-linecap: square"/>
   </g>
   <g id="patch_3">
    <path d="M 52.94 158.92 
L 52.94 17.28 
" style="fill: none; stroke: #000000; stroke-width: 0.8; stroke-linejoin: miter; stroke-linecap: square"/>
   </g>
   <g id="patch_4">
    <path d="M 1016.8 158.92 
L 1016.8 17.28 
" style="fill: none; stroke: #000000; stroke-width: 0.8; stroke-linejoin: miter; stroke-linecap: square"/>
   </g>
   <g id="patch_5">
    <path d="M 52.94 158.92 
L 1016.8 158.92 
" style="fill: none; stroke: #000000; stroke-width: 0.8; stroke-linejoin: miter; stroke-linecap: square"/>
   </g>
   <g id="patch_6">
    <path d="M 52.94 17.28 
L 1016.8 17.28 
" style="fill: none; stroke: #000000; stroke-width: 0.8; stroke-linejoin: miter; stroke-linecap: square"/>
   </g>
  </g>
  <g id="axes_2">
   <g id="matplotlib.axis_3">
    <g id="ytick_3">
     <g id="line2d_12">
      <defs>
       <path id="m92b723e4b7" d="M 0 0 
L 3.5 0 
" style="stroke: #000000; stroke-width: 0.8"/>
      </defs>
      <g>
       <use xlink:href="#m92b723e4b7" x="1016.8" y="109.853647" style="stroke: #000000; stroke-width: 0.8"/>
      </g>
     </g>
     <g id="text_13">
      <!-- 40 -->
      <g style="fill: #007091" transform="translate(1023.8 115.932397) scale(0.16 -0.16)">
       <use xlink:href="#DejaVuSans-34"/>
       <use xlink:href="#DejaVuSans-30" x="63.623047"/>
      </g>
     </g>
    </g>
    <g id="ytick_4">
     <g id="line2d_13">
      <g>
       <use xlink:href="#m92b723e4b7" x="1016.8" y="42.80198" style="stroke: #000000; stroke-width: 0.8"/>
      </g>
     </g>
     <g id="text_14">
      <!-- 60 -->
      <g style="fill: #007091" transform="translate(1023.8 48.88073) scale(0.16 -0.16)">
       <use xlink:href="#DejaVuSans-36"/>
       <use xlink:href="#DejaVuSans-30" x="63.623047"/>
      </g>
     </g>
    </g>
    <g id="text_15">
     <!-- Temperature [C] -->
     <g style="fill: #007091" transform="translate(1060.3175 153.1425) rotate(-90) scale(0.16 -0.16)">
      <defs>
       <path id="DejaVuSans-70" d="M 1159 525 
L 1159 -1331 
L 581 -1331 
L 581 3500 
L 1159 3500 
L 1159 2969 
Q 1341 3281 1617 3432 
Q 1894 3584 2278 3584 
Q 2916 3584 3314 3078 
Q 3713 2572 3713 1747 
Q 3713 922 3314 415 
Q 2916 -91 2278 -91 
Q 1894 -91 1617 61 
Q 1341 213 1159 525 
z
M 3116 1747 
Q 3116 2381 2855 2742 
Q 2594 3103 2138 3103 
Q 1681 3103 1420 2742 
Q 1159 2381 1159 1747 
Q 1159 1113 1420 752 
Q 1681 391 2138 391 
Q 2594 391 2855 752 
Q 3116 1113 3116 1747 
z
" transform="scale(0.015625)"/>
       <path id="DejaVuSans-72" d="M 2631 2963 
Q 2534 3019 2420 3045 
Q 2306 3072 2169 3072 
Q 1681 3072 1420 2755 
Q 1159 2438 1159 1844 
L 1159 0 
L 581 0 
L 581 3500 
L 1159 3500 
L 1159 2956 
Q 1341 3275 1631 3429 
Q 1922 3584 2338 3584 
Q 2397 3584 2469 3576 
Q 2541 3569 2628 3553 
L 2631 2963 
z
" transform="scale(0.015625)"/>
       <path id="DejaVuSans-61" d="M 2194 1759 
Q 1497 1759 1228 1600 
Q 959 1441 959 1056 
Q 959 750 1161 570 
Q 1363 391 1709 391 
Q 2188 391 2477 730 
Q 2766 1069 2766 1631 
L 2766 1759 
L 2194 1759 
z
M 3341 1997 
L 3341 0 
L 2766 0 
L 2766 531 
Q 2569 213 2275 61 
Q 1981 -91 1556 -91 
Q 1019 -91 701 211 
Q 384 513 384 1019 
Q 384 1609 779 1909 
Q 1175 2209 1959 2209 
L 2766 2209 
L 2766 2266 
Q 2766 2663 2505 2880 
Q 2244 3097 1772 3097 
Q 1472 3097 1187 3025 
Q 903 2953 641 2809 
L 641 3341 
Q 956 3463 1253 3523 
Q 1550 3584 1831 3584 
Q 2591 3584 2966 3190 
Q 3341 2797 3341 1997 
z
" transform="scale(0.015625)"/>
       <path id="DejaVuSans-75" d="M 544 1381 
L 544 3500 
L 1119 3500 
L 1119 1403 
Q 1119 906 1312 657 
Q 1506 409 1894 409 
Q 2359 409 2629 706 
Q 2900 1003 2900 1516 
L 2900 3500 
L 3475 3500 
L 3475 0 
L 2900 0 
L 2900 538 
Q 2691 219 2414 64 
Q 2138 -91 1772 -91 
Q 1169 -91 856 284 
Q 544 659 544 1381 
z
M 1991 3584 
L 1991 3584 
z
" transform="scale(0.015625)"/>
       <path id="DejaVuSans-43" d="M 4122 4306 
L 4122 3641 
Q 3803 3938 3442 4084 
Q 3081 4231 2675 4231 
Q 1875 4231 1450 3742 
Q 1025 3253 1025 2328 
Q 1025 1406 1450 917 
Q 1875 428 2675 428 
Q 3081 428 3442 575 
Q 3803 722 4122 1019 
L 4122 359 
Q 3791 134 3420 21 
Q 3050 -91 2638 -91 
Q 1578 -91 968 557 
Q 359 1206 359 2328 
Q 359 3453 968 4101 
Q 1578 4750 2638 4750 
Q 3056 4750 3426 4639 
Q 3797 4528 4122 4306 
z
" transform="scale(0.015625)"/>
      </defs>
      <use xlink:href="#DejaVuSans-54"/>
      <use xlink:href="#DejaVuSans-65" x="44.083984"/>
      <use xlink:href="#DejaVuSans-6d" x="105.607422"/>
      <use xlink:href="#DejaVuSans-70" x="203.019531"/>
      <use xlink:href="#DejaVuSans-65" x="266.496094"/>
      <use xlink:href="#DejaVuSans-72" x="328.019531"/>
      <use xlink:href="#DejaVuSans-61" x="369.132812"/>
      <use xlink:href="#DejaVuSans-74" x="430.412109"/>
      <use xlink:href="#DejaVuSans-75" x="469.621094"/>
      <use xlink:href="#DejaVuSans-72" x="533"/>
      <use xlink:href="#DejaVuSans-65" x="571.863281"/>
      <use xlink:href="#DejaVuSans-20" x="633.386719"/>
      <use xlink:href="#DejaVuSans-5b" x="665.173828"/>
      <use xlink:href="#DejaVuSans-43" x="704.1875"/>
      <use xlink:href="#DejaVuSans-5d" x="774.011719"/>
     </g>
    </g>
   </g>
   <g id="line2d_14">
    <path d="M 96.751818 152.481818 
L 97.027677 152.005304 
L 97.475044 150.712697 
L 99.651193 144.800081 
L 99.91603 143.918128 
L 100.288343 142.922039 
L 100.487853 142.251969 
L 101.042786 140.594154 
L 101.309819 139.81993 
L 102.337481 136.931643 
L 103.785048 132.800366 
L 103.939414 132.556298 
L 106.647588 124.097358 
L 106.992058 122.847068 
L 107.167472 122.314528 
L 107.759826 120.188842 
L 107.989576 119.33952 
L 108.293128 118.378894 
L 108.413942 117.988504 
L 108.78745 116.626759 
L 108.912048 116.33054 
L 109.861077 112.772629 
L 110.231008 111.243106 
L 111.764091 105.509295 
L 112.002208 104.677854 
L 112.346725 103.424286 
L 112.529454 102.697148 
L 112.773491 101.766918 
L 113.095164 100.427672 
L 113.503743 98.984423 
L 113.653674 98.582262 
L 114.039336 97.075685 
L 115.769394 91.458096 
L 116.057154 90.743773 
L 117.921418 85.19264 
L 118.060513 84.961684 
L 118.424384 83.88841 
L 118.702529 83.071423 
L 118.821025 82.854921 
L 119.005881 82.49761 
L 119.160589 82.221953 
L 119.241591 81.941826 
L 119.424166 81.735605 
L 119.688909 81.074177 
L 119.940482 80.437485 
L 120.592161 78.881588 
L 121.088933 77.748862 
L 123.579503 72.799406 
L 124.079987 71.872007 
L 124.335173 71.418439 
L 124.52135 71.1626 
L 125.030541 70.383162 
L 125.418383 69.72382 
L 125.927416 68.993702 
L 126.193372 68.587369 
L 126.523402 68.16092 
L 128.525464 65.370528 
L 129.033263 64.71372 
L 129.381535 64.237653 
L 131.049872 62.06652 
L 131.321824 61.725301 
L 132.646946 59.886745 
L 133.116026 59.148729 
L 133.298585 58.952641 
L 133.585233 58.463312 
L 133.886106 57.958935 
L 137.76456 52.001022 
L 137.950826 51.837118 
L 138.360637 51.250043 
L 142.226187 46.169315 
L 142.419305 45.96667 
L 143.920748 44.341635 
L 144.237659 44.015615 
L 145.071785 43.146626 
L 145.341317 42.887955 
L 147.748616 40.505684 
L 147.98054 40.343419 
L 148.290083 40.085196 
L 151.735756 37.556901 
L 152.666218 36.974743 
L 152.989556 36.787148 
L 153.868326 36.345054 
L 154.228621 36.126912 
L 156.599617 34.846225 
L 157.171355 34.585916 
L 157.789151 34.24574 
L 158.965546 33.611283 
L 159.311174 33.459895 
L 161.406397 32.348178 
L 161.700223 32.243578 
L 170.359203 28.820218 
L 170.747067 28.666595 
L 171.187105 28.465142 
L 172.934182 27.790453 
L 173.424975 27.559348 
L 174.864908 27.025468 
L 175.973546 26.61839 
L 176.218938 26.497697 
L 176.938491 26.266145 
L 177.629865 26.020438 
L 178.113505 25.874116 
L 178.730053 25.682945 
L 181.193961 25.089165 
L 184.076189 24.75644 
L 185.703581 24.827365 
L 188.39105 25.110174 
L 190.373922 25.329508 
L 195.006748 25.643906 
L 200.676849 25.826286 
L 203.423661 26.159458 
L 210.127587 27.661714 
L 213.434126 28.733348 
L 214.132945 28.887716 
L 214.559685 28.967135 
L 216.763671 29.004684 
L 218.565189 28.6359 
L 219.332815 28.418206 
L 219.862299 28.250129 
L 220.34598 28.092335 
L 224.257006 27.267301 
L 225.725945 27.424798 
L 226.992983 27.804012 
L 229.161928 28.672853 
L 230.728803 29.192876 
L 232.408056 29.43754 
L 233.650957 29.290622 
L 237.368557 28.065961 
L 238.049189 27.804459 
L 239.648647 27.394103 
L 240.962587 27.392762 
L 241.919259 27.582146 
L 243.189833 28.025581 
L 243.662556 28.272629 
L 244.297347 28.642903 
L 244.682983 28.839439 
L 245.340605 29.230574 
L 245.899261 29.626477 
L 246.338196 29.953093 
L 246.635507 30.176896 
L 247.393515 30.787067 
L 247.931542 31.285335 
L 248.27865 31.502582 
L 249.181596 32.378575 
L 249.511617 32.697592 
L 250.411147 33.581482 
L 250.858482 34.063658 
L 251.145031 34.403535 
L 251.598933 34.879751 
L 251.946496 35.212775 
L 252.312984 35.535666 
L 253.053949 36.313763 
L 253.587221 36.898602 
L 253.887047 37.191842 
L 254.264257 37.527547 
L 254.554372 37.865934 
L 255.035544 38.349451 
L 255.623099 39.029653 
L 256.699154 40.067762 
L 257.020714 40.45696 
L 257.322972 40.692237 
L 257.616825 41.003505 
L 258.293775 41.760146 
L 259.580135 43.127106 
L 259.828095 43.325132 
L 263.459391 46.896155 
L 263.733043 47.126962 
L 265.082215 48.360265 
L 265.349467 48.584963 
L 266.181184 49.320147 
L 266.37953 49.471237 
L 266.620078 49.639611 
L 267.042077 50.066805 
L 267.801225 50.761311 
L 268.361081 51.273735 
L 269.230395 51.973903 
L 270.905966 53.376326 
L 271.31938 53.747941 
L 272.125924 54.411157 
L 272.813733 54.998082 
L 274.513676 56.282345 
L 274.808535 56.417641 
L 275.212393 56.70641 
L 275.65123 57.011867 
L 279.441476 59.605426 
L 279.679603 59.776631 
L 280.078633 59.979723 
L 280.912871 60.534315 
L 281.149683 60.666481 
L 282.50867 61.534279 
L 283.236476 62.033143 
L 284.290844 62.714835 
L 285.157713 63.310254 
L 286.209346 63.984347 
L 286.627645 64.256576 
L 287.430409 64.768702 
L 287.799194 65.050319 
L 288.391605 65.443391 
L 289.22583 65.950003 
L 289.587246 66.121507 
L 290.660952 66.828529 
L 291.099749 67.123259 
L 291.773286 67.426183 
L 297.260764 70.493424 
L 297.67429 70.721549 
L 302.266096 73.070443 
L 302.449785 73.180259 
L 302.95267 73.354892 
L 303.731249 73.690597 
L 304.240241 73.96387 
L 304.827876 74.258748 
L 305.234111 74.496111 
L 306.436954 75.059196 
L 307.955565 75.889296 
L 308.801763 76.242583 
L 311.870172 77.616546 
L 312.758751 77.999039 
L 316.318025 79.384177 
L 316.836754 79.557618 
L 321.994299 81.603737 
L 322.265042 81.717873 
L 323.252834 82.055218 
L 323.834356 82.279915 
L 324.602035 82.572708 
L 330.095694 84.641922 
L 330.683262 84.808806 
L 330.944459 84.916238 
L 331.436497 85.088039 
L 337.444101 87.150995 
L 338.094434 87.340826 
L 339.177646 87.700223 
L 339.843829 87.90406 
L 341.049241 88.314267 
L 342.02121 88.633731 
L 342.66923 88.832949 
L 343.0803 88.988956 
L 345.497149 89.743511 
L 353.88502 92.243942 
L 354.435135 92.389221 
L 358.988129 93.666927 
L 360.005005 93.94616 
L 360.692789 94.158491 
L 378.289665 98.440559 
L 379.633031 98.513124 
L 380.511828 98.337001 
L 381.248138 98.020071 
L 381.729242 97.709547 
L 383.599578 95.389261 
L 383.840152 94.952978 
L 384.315292 94.18844 
L 384.523261 93.82651 
L 384.657524 93.560539 
L 385.457846 91.749846 
L 386.059881 90.132113 
L 386.249919 89.59853 
L 386.715125 88.245726 
L 386.860257 87.838499 
L 387.056103 87.246209 
L 387.816989 84.694073 
L 388.142948 83.510388 
L 393.315067 67.454494 
L 393.57134 66.649427 
L 393.765974 66.174999 
L 394.468425 64.62998 
L 394.618391 64.403941 
L 396.041275 60.814293 
L 396.511802 59.755025 
L 396.772742 59.051728 
L 397.575583 57.217492 
L 397.872972 56.545784 
L 398.469032 55.103577 
L 399.270615 53.36679 
L 401.665511 48.653058 
L 403.950498 44.863893 
L 404.362056 44.100398 
L 404.642198 43.623736 
L 404.983015 43.110418 
L 405.217749 42.900025 
L 405.54998 42.352734 
L 405.99366 41.654801 
L 406.286355 41.331761 
L 406.704591 40.66929 
L 407.2306 39.891491 
L 407.638411 39.276553 
L 407.879863 39.007601 
L 409.816529 36.531457 
L 409.995473 36.361146 
L 410.39227 35.935144 
L 410.89372 35.315736 
L 411.11261 35.044549 
L 413.78572 32.346241 
L 414.027451 32.150152 
L 414.265654 31.912789 
L 418.22762 29.046703 
L 418.60832 28.815152 
L 419.145129 28.482426 
L 421.24396 27.436271 
L 421.836327 27.134092 
L 425.80068 25.720047 
L 429.304444 25.308796 
L 432.156272 25.39045 
L 433.701566 25.705742 
L 436.355149 26.286112 
L 437.307844 26.519451 
L 438.531256 26.84115 
L 439.972341 27.366985 
L 442.1703 28.077732 
L 446.247131 29.361697 
L 447.436696 29.33279 
L 448.341031 29.146089 
L 449.24294 28.838694 
L 449.529487 28.750484 
L 450.089253 28.48779 
L 450.802512 28.151191 
L 451.432572 27.777192 
L 452.242536 27.239139 
L 452.602732 27.063613 
L 453.068151 26.793618 
L 454.751044 26.067821 
L 455.956599 25.918967 
L 457.025178 26.079891 
L 458.452961 26.647744 
L 458.812153 26.851581 
L 459.347748 27.152568 
L 459.640261 27.338376 
L 460.134757 27.713269 
L 461.0125 28.356369 
L 462.804154 29.662536 
L 463.275774 29.901836 
L 464.024122 30.345569 
L 465.102481 30.755031 
L 465.28514 30.81642 
L 466.782957 31.04827 
L 467.63421 30.933686 
L 469.169505 30.305636 
L 469.723279 29.997347 
L 470.160976 29.719455 
L 471.389287 28.933907 
L 471.531874 28.871028 
L 472.001045 28.629344 
L 474.374406 27.090583 
L 474.862741 26.812542 
L 476.624165 26.388477 
L 477.875439 26.491141 
L 480.022239 27.33033 
L 480.281308 27.49781 
L 480.832701 27.888199 
L 484.022003 30.054713 
L 484.735312 30.597683 
L 485.088482 30.798689 
L 485.60341 31.086415 
L 486.682925 31.525231 
L 487.380593 31.732346 
L 488.74674 31.913833 
L 490.357027 31.760508 
L 491.463274 31.485596 
L 491.859834 31.365052 
L 492.655421 31.199062 
L 494.863041 30.85084 
L 496.241337 30.927577 
L 498.272294 31.560694 
L 499.572085 32.250432 
L 500.336064 32.724413 
L 500.87406 33.102584 
L 501.036053 33.22581 
L 501.561045 33.574032 
L 501.791758 33.720949 
L 502.080671 33.900797 
L 504.596621 35.630432 
L 505.072947 35.994001 
L 505.950659 36.659898 
L 506.214263 36.812329 
L 506.968647 37.407003 
L 507.264838 37.647346 
L 511.399607 40.95046 
L 511.6413 41.134629 
L 512.095966 41.475102 
L 512.433273 41.786371 
L 512.889036 42.180784 
L 513.665176 42.82001 
L 513.928884 42.995983 
L 514.314564 43.319321 
L 514.552946 43.476967 
L 518.715202 46.663411 
L 519.086427 46.882298 
L 520.830872 48.086247 
L 521.216567 48.38351 
L 521.477719 48.576768 
L 521.769062 48.807723 
L 522.293739 49.109158 
L 522.743579 49.445906 
L 523.438793 49.924208 
L 525.787791 51.368501 
L 526.40191 51.821025 
L 526.78027 52.061517 
L 527.147838 52.320337 
L 528.428144 53.114824 
L 528.709947 53.317022 
L 529.399034 53.761948 
L 529.634826 53.903799 
L 530.240486 54.273626 
L 530.55362 54.513224 
L 532.684055 55.867966 
L 533.048928 56.011903 
L 536.651748 57.944481 
L 537.088129 58.131928 
L 537.551583 58.395069 
L 539.127761 59.287005 
L 539.419079 59.47311 
L 540.26899 59.956031 
L 540.612335 60.172534 
L 541.959243 60.866146 
L 542.358107 61.082947 
L 544.029007 62.007216 
L 544.454581 62.231318 
L 544.969552 62.461231 
L 545.447123 62.7126 
L 546.532763 63.09852 
L 555.549433 67.181221 
L 556.041513 67.401151 
L 560.623584 69.272786 
L 561.293428 69.535033 
L 562.070815 69.872228 
L 562.610071 70.064443 
L 564.956543 71.022388 
L 565.541828 71.262731 
L 567.935537 72.160627 
L 570.297893 73.001306 
L 571.323617 73.299015 
L 571.811628 73.48378 
L 574.728848 74.500283 
L 578.712468 75.894362 
L 579.164717 76.059607 
L 579.70873 76.272086 
L 580.602255 76.516452 
L 585.283484 77.974155 
L 591.630508 79.860542 
L 592.34383 80.015506 
L 593.473106 80.274325 
L 594.608272 80.624484 
L 599.642489 81.998596 
L 600.208518 82.168759 
L 604.860505 83.431565 
L 607.27487 83.993756 
L 608.214328 84.190739 
L 609.620353 84.569804 
L 609.945262 84.671872 
L 611.785589 85.136912 
L 612.384019 85.240023 
L 618.217094 86.683422 
L 619.289816 86.895752 
L 621.256915 87.489383 
L 622.352155 87.74999 
L 623.477869 87.956211 
L 623.877938 88.027435 
L 625.010715 88.269119 
L 626.752932 88.722537 
L 629.184245 89.280854 
L 630.951802 89.624755 
L 633.592244 90.285586 
L 634.485661 90.445914 
L 635.224398 90.570779 
L 636.371858 90.773573 
L 638.046132 91.135652 
L 638.665148 91.291659 
L 641.595788 91.988699 
L 645.005012 92.664728 
L 649.203888 93.496318 
L 651.343733 93.862718 
L 653.186468 94.26771 
L 662.656322 95.941916 
L 664.745418 96.311743 
L 667.142836 96.730145 
L 669.875119 97.219176 
L 674.488742 98.039888 
L 674.764338 98.091741 
L 676.189782 98.327316 
L 678.604294 98.483025 
L 679.704295 98.381256 
L 680.82493 98.062537 
L 682.661377 96.95827 
L 682.950428 96.72344 
L 683.808792 95.874864 
L 684.095287 95.57194 
L 684.989983 94.473633 
L 686.412984 92.293113 
L 686.856611 91.465845 
L 687.43225 90.50343 
L 687.825203 89.762583 
L 688.128608 89.17834 
L 688.448884 88.656678 
L 688.80555 88.020134 
L 689.049693 87.572676 
L 692.46996 81.016662 
L 692.726232 80.415432 
L 692.980134 79.873357 
L 693.632979 78.3787 
L 693.991872 77.534743 
L 694.456383 76.546253 
L 694.742838 75.778735 
L 695.170854 74.721851 
L 695.613366 73.480353 
L 696.418494 71.517676 
L 696.593907 71.071559 
L 697.002423 69.772097 
L 697.534545 68.11607 
L 697.946652 66.899008 
L 698.207878 66.083809 
L 698.418198 65.417911 
L 698.977956 63.748325 
L 699.321344 62.657171 
L 700.410811 59.004345 
L 700.568982 58.580131 
L 700.990948 57.223304 
L 701.215749 56.5434 
L 701.751397 54.873366 
L 701.937548 54.281374 
L 702.224715 53.367237 
L 702.666665 52.053918 
L 702.804468 51.579341 
L 703.968676 48.3701 
L 704.099261 48.068069 
L 704.462865 47.048139 
L 707.5593 39.425854 
L 707.899075 38.694395 
L 708.248572 37.999442 
L 708.674036 37.112274 
L 709.514302 35.621492 
L 710.347323 34.370457 
L 710.705181 33.836427 
L 713.617615 30.090474 
L 713.923503 29.818393 
L 714.160438 29.573282 
L 717.575856 26.86067 
L 717.993029 26.64223 
L 718.425809 26.372385 
L 718.737654 26.180915 
L 719.692906 25.650015 
L 720.056613 25.443347 
L 723.886763 24.103356 
L 726.646992 23.735913 
L 729.23652 23.747238 
L 731.184231 23.923211 
L 732.74627 24.115575 
L 734.159617 24.302723 
L 736.032275 24.667186 
L 737.122714 24.904102 
L 740.530902 25.637201 
L 742.079684 26.156031 
L 743.119441 26.487863 
L 743.872599 26.768586 
L 744.236797 26.900454 
L 745.53856 27.37816 
L 746.254328 27.703286 
L 747.431901 28.280228 
L 748.119744 28.657804 
L 750.457958 29.420405 
L 751.457834 29.422491 
L 752.154204 29.224614 
L 753.250684 28.739458 
L 754.564836 27.857356 
L 754.810391 27.691068 
L 756.039846 26.800025 
L 756.426701 26.475197 
L 757.182403 25.852958 
L 757.645403 25.444241 
L 758.402389 24.901271 
L 758.771152 24.687153 
L 759.832459 24.204828 
L 761.081303 24.039136 
L 762.141649 24.130624 
L 763.97566 24.761506 
L 764.321426 24.931817 
L 764.698629 25.118221 
L 767.454797 26.996263 
L 767.780443 27.252401 
L 768.37396 27.787026 
L 768.617009 27.971344 
L 769.665189 28.870283 
L 770.488522 29.485519 
L 770.881344 29.758047 
L 772.703389 30.563114 
L 773.924556 30.698111 
L 775.914486 30.239925 
L 776.562648 29.924335 
L 776.979625 29.691144 
L 778.102661 29.031505 
L 778.40616 28.834373 
L 778.866788 28.521465 
L 781.000616 27.601069 
L 782.699617 27.41109 
L 783.473266 27.545342 
L 785.442445 28.336552 
L 786.512429 29.018393 
L 786.889629 29.255457 
L 787.409531 29.642718 
L 787.704527 29.803046 
L 788.421454 30.245289 
L 788.743075 30.501575 
L 790.329219 31.664996 
L 790.539595 31.785838 
L 791.408852 32.476172 
L 791.753708 32.719645 
L 792.228525 33.114355 
L 793.080944 33.790385 
L 793.466483 34.124898 
L 794.096507 34.583681 
L 796.341603 36.291114 
L 796.583322 36.461724 
L 797.538386 37.16666 
L 797.769343 37.373477 
L 799.916551 39.041872 
L 800.39041 39.391285 
L 801.743407 40.491529 
L 802.428419 41.078901 
L 807.280453 44.947931 
L 807.558488 45.106322 
L 808.547681 45.829437 
L 809.090328 46.223105 
L 811.588322 47.88852 
L 811.925366 48.089079 
L 812.701539 48.590029 
L 813.801753 49.347117 
L 814.228579 49.624115 
L 814.892241 50.103013 
L 817.105964 51.501859 
L 818.253238 52.235554 
L 818.971416 52.724733 
L 820.29902 53.406425 
L 821.054555 53.895157 
L 821.938202 54.366307 
L 822.454432 54.70678 
L 822.874063 54.908382 
L 824.35375 55.761875 
L 824.599203 55.867072 
L 825.718727 56.450421 
L 826.208396 56.699854 
L 827.181682 57.224347 
L 827.622961 57.467372 
L 828.990331 58.122541 
L 830.098972 58.697695 
L 830.535432 58.948021 
L 831.512213 59.415893 
L 832.427429 59.926976 
L 832.937702 60.140647 
L 833.268835 60.308872 
L 834.317029 60.775701 
L 837.479833 62.249944 
L 837.974343 62.48969 
L 838.871403 62.880229 
L 839.410628 63.137708 
L 840.340404 63.531971 
L 842.423363 64.467268 
L 844.425421 65.367399 
L 844.915232 65.576898 
L 846.127641 66.075167 
L 847.276489 66.604875 
L 848.495421 67.056952 
L 849.226462 67.381929 
L 849.845457 67.644474 
L 851.981593 68.393515 
L 852.356379 68.556972 
L 852.806161 68.755147 
L 853.421502 69.008006 
L 864.491079 73.044815 
L 865.314347 73.274132 
L 866.203069 73.626227 
L 868.825354 74.489704 
L 871.533359 75.362567 
L 872.356905 75.615576 
L 873.579024 76.003432 
L 874.420472 76.244669 
L 886.804106 79.916568 
L 888.500337 80.315153 
L 907.329151 85.241066 
L 909.401373 85.66066 
L 919.8035 88.064239 
L 921.428472 88.40814 
L 922.096943 88.600205 
L 924.157062 89.091173 
L 926.501394 89.51032 
L 927.515634 89.67482 
L 928.97861 90.028257 
L 946.807507 93.583485 
L 948.750447 93.925449 
L 949.83119 94.130478 
L 951.161037 94.360987 
L 952.394371 94.57585 
L 954.698586 95.013176 
L 957.756114 95.557486 
L 963.503622 96.522881 
L 964.568796 96.712861 
L 969.849632 97.642793 
L 971.110675 97.879709 
L 972.835834 98.171607 
L 972.988182 98.185018 
L 972.988182 98.185018 
" clip-path="url(#p80a0cee906)" style="fill: none; stroke: #007091; stroke-width: 3; stroke-linecap: square"/>
   </g>
   <g id="patch_7">
    <path d="M 52.94 158.92 
L 52.94 17.28 
" style="fill: none; stroke: #000000; stroke-width: 0.8; stroke-linejoin: miter; stroke-linecap: square"/>
   </g>
   <g id="patch_8">
    <path d="M 1016.8 158.92 
L 1016.8 17.28 
" style="fill: none; stroke: #000000; stroke-width: 0.8; stroke-linejoin: miter; stroke-linecap: square"/>
   </g>
   <g id="patch_9">
    <path d="M 52.94 158.92 
L 1016.8 158.92 
" style="fill: none; stroke: #000000; stroke-width: 0.8; stroke-linejoin: miter; stroke-linecap: square"/>
   </g>
   <g id="patch_10">
    <path d="M 52.94 17.28 
L 1016.8 17.28 
" style="fill: none; stroke: #000000; stroke-width: 0.8; stroke-linejoin: miter; stroke-linecap: square"/>
   </g>
  </g>
 </g>
 <defs>
  <clipPath id="p80a0cee906">
   <rect x="52.94" y="17.28" width="963.86" height="141.64"/>
  </clipPath>
 </defs>
</svg>
